<svg version="1.1" id="Layer_1" xmlns="http://www.w3.org/2000/svg" xmlns:xlink="http://www.w3.org/1999/xlink" x="0px" y="0px" viewBox="0 0 48.6 60" style="enable-background:new 0 0 48.6 60;" xml:space="preserve">
 <style type="text/css">
  .st0{fill:#98989A;}
	.st1{fill:#3E000A;}
 </style>
 <g>
  <path class="st0" d="M16.7,17.9c0-4.2,3-7.6,7.8-9.3C30.1,6.6,44,5.8,48.6,0v9.8c-4.3,5.3-18.6,5.4-24.1,7.3
		c-4.3,1.5-5.9,4.1-6.8,5.3c-0.4,0.5-0.5,0.7-0.7,0.7c-0.2,0-0.3-0.2-0.3-0.4V17.9">
  </path>
  <path class="st1" d="M6.2,60C0.7,60-3,52.5,3.3,45c2.1-2.5,4.6-4.8,6.8-7.2c4.2-4.6,5.5-8.2,6.3-11.6c0-0.2,0.2-0.4,0.5-0.4
		c0.3,0,0.4,0.2,0.5,0.4c0.8,3.4,2.1,7,6.3,11.6c2.2,2.4,4.7,4.7,6.8,7.2c6.3,7.6,2.6,15-2.8,15H6.2">
  </path>
 </g>
</svg>