<svg width="1920" height="1080" viewBox="0 0 1920 1080" fill="none" style="opacity:.25;" xmlns="http://www.w3.org/2000/svg">
<g clip-path="url(#clip0_1059_690)">
<path opacity="0.4" d="M399.76 185.602C389.811 172.074 395.494 169.17 402.815 161.225C406.224 157.519 414.161 156.884 419.743 156.445C419.743 156.445 399.949 123.688 424.746 113.276C449.552 102.875 467.212 114.891 472.265 126.002C477.329 137.126 498.211 136.124 475.838 169.631C475.838 169.631 492.08 169.409 488.846 182.551C485.612 195.694 474.826 202.571 468.356 198.424C468.356 198.424 462.367 224.002 443.564 209.587C443.564 209.587 430.131 199.091 425.837 185.258C425.837 185.258 409.071 198.247 399.75 185.591" fill="white"/>
<path opacity="0.4" d="M1655.62 440.931C1668.29 451.573 1663.53 455.675 1658.36 464.985C1655.96 469.326 1648.51 471.779 1643.27 473.497C1643.27 473.497 1669.83 500.263 1648.51 515.998C1627.17 531.724 1607.47 524.323 1600.05 514.857C1592.61 505.383 1572.85 511.196 1586.48 473.91C1586.48 473.91 1570.98 477.898 1571.02 464.561C1571.07 451.224 1579.8 442.131 1586.96 444.599C1586.96 444.599 1586.75 418.713 1608.1 428.146C1608.1 428.146 1623.4 435.074 1630.73 447.323C1630.73 447.323 1643.77 430.987 1655.63 440.94" fill="white"/>
<path opacity="0.4" d="M122.055 586.322C132.533 574.159 136.446 578.795 145.397 583.872C149.565 586.251 151.84 593.464 153.438 598.559C153.438 598.559 179.732 573.074 194.663 593.856C209.595 614.639 202.146 633.64 192.875 640.749C183.605 647.858 188.95 667.043 153.03 653.524C153.03 653.524 156.676 668.567 143.752 668.413C130.84 668.25 122.162 659.724 124.643 652.82C124.643 652.82 99.5715 652.793 109.008 632.217C109.008 632.217 115.927 617.476 127.89 610.481C127.89 610.481 112.241 597.721 122.055 586.322" fill="white"/>
<path opacity="0.4" d="M1959.36 362.339C1952.15 376.422 1947.33 372.891 1937.58 370.111C1933.03 368.801 1929.18 362.423 1926.46 357.916C1926.46 357.916 1907.21 388.432 1888.08 372.002C1868.95 355.571 1871.67 335.645 1878.89 326.682C1886.12 317.72 1876.54 300.59 1914.08 305.186C1914.08 305.186 1907.09 291.629 1919.5 288.772C1931.9 285.927 1942.19 292.074 1941.42 299.262C1941.42 299.262 1965.44 293.46 1961.18 315.357C1961.18 315.357 1957.99 331.081 1948.16 340.56C1948.16 340.56 1966.11 349.142 1959.36 362.339" fill="white"/>
<path opacity="0.4" d="M0.685087 490.532C-14.7458 496.311 -16.0063 490.154 -21.5741 481.09C-24.1799 476.865 -22.6775 469.206 -21.6203 463.795C-21.6203 463.795 -57.8652 473.727 -61.1259 447.483C-64.419 421.247 -48.3589 407.779 -36.5049 405.982C-24.6396 404.174 -20.0615 384.158 5.72598 414.295C5.72598 414.295 9.81694 398.866 21.3999 405.467C32.9732 412.056 36.6164 424.095 30.9952 429.098C30.9952 429.098 53.5993 441.623 34.9885 455.526C34.9885 455.526 21.5088 465.416 7.27393 465.765C7.27393 465.765 15.1233 485.114 0.675567 490.521" fill="white"/>
<path opacity="0.4" d="M1488.57 889.133C1473.54 895.279 1472.12 889.252 1466.37 880.489C1463.68 876.404 1464.93 868.815 1465.81 863.455C1465.81 863.455 1430.4 874.305 1426.42 848.552C1422.4 822.807 1437.83 809.069 1449.45 806.949C1461.08 804.819 1465 784.969 1491.29 813.893C1491.29 813.893 1494.86 798.577 1506.47 804.737C1518.06 810.886 1522 822.637 1516.61 827.73C1516.61 827.73 1539.25 839.401 1521.33 853.643C1521.33 853.643 1508.34 863.781 1494.33 864.544C1494.33 864.544 1502.63 883.371 1488.56 889.122" fill="white"/>
<path opacity="0.4" d="M1836.56 970.018C1821.53 976.164 1820.11 970.137 1814.36 961.373C1811.67 957.289 1812.92 949.7 1813.8 944.339C1813.8 944.339 1778.4 955.189 1774.41 929.436C1770.4 903.692 1785.82 889.954 1797.44 887.834C1809.07 885.704 1812.99 865.854 1839.28 894.778C1839.28 894.778 1842.86 879.462 1854.46 885.622C1866.05 891.771 1870 903.522 1864.61 908.614C1864.61 908.614 1887.24 920.286 1869.32 934.528C1869.32 934.528 1856.33 944.665 1842.32 945.429C1842.32 945.429 1850.62 964.256 1836.55 970.007" fill="white"/>
<path opacity="0.4" d="M1828.02 483.909C1841.46 474.788 1844.1 480.391 1851.53 487.776C1855.01 491.216 1855.35 498.9 1855.6 504.328C1855.6 504.328 1888 486.392 1897.22 510.764C1906.47 535.122 1894.22 551.752 1883.29 556.229C1872.35 560.718 1872.62 580.95 1840.92 558.085C1840.92 558.085 1840.59 573.81 1827.96 570.182C1815.35 566.563 1809.06 555.881 1813.28 549.784C1813.28 549.784 1788.72 543.044 1803.31 525.404C1803.31 525.404 1813.92 512.801 1827.47 509.158C1827.47 509.158 1815.46 492.453 1828.04 483.918" fill="white"/>
<path d="M1607.07 878.858C1610.07 881.604 1611.85 887.805 1614.71 889.556C1617.56 891.308 1620.21 889.671 1628.87 889.017C1637.52 888.363 1659.8 899.105 1682.53 888.093C1705.26 877.08 1716.57 846.256 1716.57 846.256C1718.78 841.085 1728.34 838.043 1724.94 832.394C1721.53 826.752 1721.49 813.173 1724.16 807.408C1726.83 801.643 1724.02 784.286 1720.32 775.694C1716.62 767.102 1697.22 734.096 1667.46 749.633C1637.7 765.171 1633.62 788.722 1633.62 788.722C1633.62 788.722 1602.43 776.726 1588.66 784.963C1574.89 793.184 1557.24 800.366 1566.33 832.589C1575.42 864.789 1604.08 876.112 1607.07 878.858ZM1675.94 774.612C1686.76 769.587 1696 771.627 1700.07 779.523C1704.15 787.42 1703.54 810.337 1703.54 810.337C1703.54 810.337 1703.02 814.54 1700.83 815.988C1698.63 817.435 1698.35 817.415 1685.09 814.612C1671.82 811.809 1660.12 811.539 1655.5 800.396C1650.88 789.254 1665.12 779.613 1675.95 774.605L1675.94 774.612ZM1655.8 834.844C1662.07 831.995 1689.39 840.46 1689.39 840.46C1689.39 840.46 1694.7 842.379 1692.21 847.283C1689.73 852.187 1687.54 864.274 1672.87 869.953C1658.19 875.633 1644.42 872.293 1641.86 870.285C1639.3 868.277 1638.07 866.585 1638.83 862.971C1639.59 859.357 1651.22 836.915 1655.8 834.844ZM1589.36 832.896C1587.1 822.636 1590.9 811.069 1603.87 807.15C1616.86 803.224 1624.52 804.056 1632.29 815.098C1632.29 815.098 1638.52 823.045 1629.96 835.797C1621.4 848.549 1620.52 854.759 1616.19 855.903C1611.87 857.025 1591.61 843.18 1589.37 832.913L1589.36 832.896Z" fill="#3E000A"/>
<path d="M241.759 38.0067C242.83 34.0236 247.578 29.5141 247.82 26.1265C248.063 22.7388 245.347 21.1151 240.708 13.6284C236.07 6.14174 235.315 -18.951 214.763 -34.2623C194.211 -49.5736 161.159 -45.3376 161.159 -45.3376C155.472 -44.9029 148.258 -52.0874 144.761 -46.3869C141.277 -40.6748 129.066 -34.2871 122.627 -33.9905C116.188 -33.694 101.873 -23.0413 95.8658 -15.6926C89.8585 -8.34397 69.2201 24.5789 97.1362 44.1031C125.052 63.6272 148.171 56.2835 148.171 56.2835C148.171 56.2835 151.966 89.9849 165.825 98.5252C179.672 107.079 194.399 119.611 219.162 96.3494C243.901 73.0899 240.688 41.9898 241.759 38.0067ZM115.661 24.7801C106.071 17.3832 103.586 8.11378 108.789 0.746414C113.991 -6.62095 134.914 -16.7944 134.914 -16.7944C134.914 -16.7944 138.941 -18.295 141.272 -16.9946C143.603 -15.6943 143.715 -15.4363 147.399 -2.17871C151.083 11.0788 156.314 21.7397 148.442 31.1135C140.57 40.4874 125.227 32.1793 115.648 24.7686L115.661 24.7801ZM179.321 14.7245C173.822 10.4118 168.662 -18.1457 168.662 -18.1457C168.662 -18.1457 167.903 -23.8302 173.483 -23.8857C179.062 -23.9412 190.971 -27.6246 202.951 -17.0707C214.932 -6.5168 218.371 7.45077 217.759 10.6923C217.147 13.9339 216.202 15.8401 212.592 16.8452C208.981 17.8503 183.33 17.8798 179.321 14.7245ZM208.66 75.4647C200.479 82.3025 188.283 84.2896 178.685 74.445C169.073 64.5889 166.237 57.3013 172.541 45.132C172.541 45.132 176.784 35.8085 192.273 37.5495C207.763 39.2905 213.763 37.1706 216.821 40.5368C219.854 43.9052 216.866 68.6246 208.672 75.4509L208.66 75.4647Z" fill="#3E000A"/>
<path d="M146.714 212.751C146.714 212.751 148.004 208.362 146.987 205.494C146.215 203.336 146.898 202.736 147.56 197.699C148.73 188.741 149.203 184.789 146.634 179.298C142.495 170.441 136.111 165.879 133.51 163.205C132.218 162.25 130.814 161.399 129.529 160.967C125.488 159.628 123.113 159.592 123.845 159.242C124.547 158.929 127.376 158.876 131.696 160.042C128.732 154.024 120.097 146.87 106.071 148.467C96.4713 149.582 89.1954 153.718 87.5453 154.656C85.5242 155.79 81.9956 158.546 79.7294 161.186C79.4322 161.529 79.1266 162.001 78.8016 162.554C77.8666 163.399 76.8929 164.409 76.1391 165.405C74.9178 167.009 73.1106 172.125 74.8852 178.32C76.4061 183.565 79.3501 187.362 79.3501 187.362C79.3501 187.362 77.9512 192.031 78.3317 195.118C78.4114 195.702 78.5177 196.357 78.6699 197.001C79.077 198.682 80.2657 199.895 81.2466 200.886C83.0478 202.721 85.8251 203.351 85.7755 203.839C85.726 204.327 81.8628 204.724 79.0009 202.792C78.4948 202.456 78.3788 201.842 77.985 201.489C76.7347 201.739 75.5013 202.101 74.4854 202.645C73.8403 202.993 73.2061 203.387 72.5924 203.787C72.5924 203.787 70.0435 203.753 68.5624 205.079C67.0814 206.404 66.8096 207.1 66.8579 206.894C66.9062 206.689 66.6767 205.635 67.8968 203.945C68.3184 203.348 68.7473 202.906 69.1471 202.587C68.8632 202.042 68.5057 201.35 68.0188 200.563C67.207 199.221 65.633 198.265 64.5458 197.727C65.296 196.1 65.2742 193.423 64.5421 192.295C64.4962 192.306 63.3679 192.867 62.4511 192.804C61.4061 192.732 60.3696 192.163 60.5521 192.032C60.7345 191.901 62.3073 192.031 64.257 189.817C66.2068 187.602 66.1802 185.315 66.1802 185.315L66.202 185.407C66.4581 182.469 65.9495 181.22 65.9495 181.22C65.9495 181.22 69.2921 175.009 66.4122 169.923C64.5917 166.693 62.1804 164.78 59.5409 163.748C45.0737 148.947 19.919 158.73 15.3165 162.277C10.3286 166.082 5.62816 173.647 5.48199 178.24C5.40709 180.59 5.7091 182.812 6.04372 184.433C7.90286 183.435 9.48537 183.524 9.48537 183.524C9.48537 183.524 8.23024 184.903 6.67793 186.993C6.67793 186.993 6.37713 187.444 5.93258 188.23C4.94563 190.128 3.72915 193.188 2.93427 195.283C2.31335 197.375 1.90505 199.668 1.9425 202.002C2.18652 211.857 6.21647 219.059 7.92341 222.588C7.84368 228.653 5.44576 232.5 9.13385 241.99C14.0735 254.642 19.0904 260.316 24.6533 264.033C28.5117 266.612 34.1145 268.035 38.3438 269.31C38.438 266.138 40.0254 263.622 40.4808 263.251C40.9664 262.843 40.7381 267.786 42.8606 271.022C44.3102 271.861 46.2696 274.038 48.9454 275.839C50.2972 276.634 51.5185 277.246 52.2348 277.61C53.6192 278.174 55.1595 278.535 56.864 278.566C60.5086 278.639 66.6006 277.331 71.4714 274.673C72.869 275.087 74.6279 275.717 76.7335 275.516C79.9939 275.195 85.6439 273.002 85.6439 273.002C85.6439 273.002 91.9292 274.933 98.8487 272.407C105.922 269.874 109.518 266.829 109.518 266.829C109.518 266.829 119.389 265.3 124.166 259.252C128.944 253.204 126.616 255.461 132.334 250.393C136.52 246.683 138.925 240.035 139.918 236.727C139.982 236.177 140.025 235.622 140.053 235.042C140.168 228.921 138.475 228.285 139.49 228.393C140.315 228.478 141.458 230.071 142.29 233.264C143.578 232.024 145.289 229.906 146.415 226.585C148.455 220.568 146.69 212.854 146.69 212.854L146.714 212.751Z" fill="#FBD008"/>
<path d="M1768.73 620.389C1768.73 620.389 1768.68 607.177 1764.36 602.397C1760.03 597.616 1757.78 596.255 1757.27 593.579C1756.76 590.903 1755.24 589.096 1754.31 588.157C1751.75 585.542 1750.57 585.506 1747.89 582.762C1745.22 580.022 1740.63 574.609 1730.02 574.273C1725.71 574.131 1722.83 574.517 1720.7 575.054C1718.93 575.665 1716.21 576.781 1714.82 578.286C1712.62 580.651 1712.03 582.08 1712.03 582.08C1712.03 582.08 1711.46 579.257 1712.85 577.172C1709.67 577.19 1705.15 576.559 1702 578.184C1698.36 580.067 1699.14 580.413 1695.67 581.991C1692.21 583.57 1690.22 582.91 1687.91 585.353C1685.6 587.795 1685.66 588.66 1680.91 590.386C1676.17 592.131 1671.77 596.261 1670.86 599.79C1669.96 603.32 1668.59 605.307 1668.78 605.533C1667.93 606.503 1667.09 607.591 1666.41 608.732C1664.17 612.467 1664.74 615.785 1664.74 615.785C1666.37 617.855 1667.09 618.937 1667.09 618.937C1667.09 618.937 1663.97 618.389 1662.05 616.924C1661.9 617.048 1661.76 617.155 1661.61 617.296C1660.1 618.811 1662.23 621.697 1661.16 623.711C1660.09 625.724 1658.01 626.102 1657.86 631.846C1657.71 637.591 1659.7 638.32 1660.06 643.571C1660.42 648.823 1662.62 657.294 1665.78 660.867C1668.94 664.44 1668.89 665.418 1672.4 672.315C1674.64 676.74 1678.31 679.002 1680.67 680.062C1680.97 678.197 1681.54 675.638 1682.23 675.182C1683.13 674.582 1682.1 676.553 1682.48 679.287C1682.86 682.022 1688.03 686.156 1688.03 686.156C1691.1 688.433 1696.62 688.807 1698.71 690.816C1700.79 692.841 1708.56 699.003 1713.77 700.437C1718.98 701.871 1720.57 697.715 1724.31 697.351C1728.07 696.975 1731.49 698.146 1740.41 689.501C1749.32 680.852 1748.7 670.182 1746.91 661.317C1745.11 652.451 1739.49 647.765 1729.95 642.263C1725.34 639.606 1721.09 639.304 1717.93 639.702C1716.01 640.129 1712.85 641.054 1711.36 642.742C1709.13 645.254 1708.86 646.595 1708.86 646.595C1708.86 646.595 1708 643.149 1709.96 640.431C1710.39 639.82 1710.95 639.288 1711.54 638.811C1711.38 638.385 1711.16 637.933 1710.93 637.425C1709.79 635.081 1705.45 633.04 1705.45 633.04C1705.45 633.04 1708.05 631.456 1709.49 627.525C1709.87 626.495 1710.02 625.265 1710.06 623.978C1711.22 623.549 1712.9 623.125 1714.72 623.29L1715.45 623.354C1715.8 622.471 1716.22 621.484 1716.65 620.565C1717.77 618.136 1720.82 617.666 1720.82 617.666C1720.82 617.666 1719.74 618.383 1718.96 620.712C1718.45 622.21 1718.14 624.055 1717.96 625.194C1718.11 627.165 1719.29 630.693 1725.19 634.244C1734.09 639.58 1739.11 637.279 1742.66 638.545C1746.2 639.811 1752 642.439 1760.05 634.076C1768.12 625.717 1768.72 620.353 1768.72 620.353L1768.73 620.389Z" fill="#FBD008"/>
<path d="M1668.81 955.04C1668.81 955.04 1655.79 957.238 1651.77 962.285C1647.76 967.331 1646.79 969.776 1644.23 970.714C1641.67 971.651 1640.13 973.443 1639.36 974.513C1637.2 977.464 1637.35 978.635 1635.08 981.731C1632.81 984.811 1628.22 990.219 1629.62 1000.74C1630.18 1005.01 1631.03 1007.79 1631.9 1009.8C1632.8 1011.45 1634.34 1013.96 1636.05 1015.09C1638.74 1016.87 1640.25 1017.22 1640.25 1017.22C1640.25 1017.22 1637.56 1018.24 1635.27 1017.21C1635.81 1020.34 1635.92 1024.91 1638.04 1027.75C1640.49 1031.04 1640.7 1030.21 1642.82 1033.37C1644.95 1036.53 1644.62 1038.6 1647.41 1040.49C1650.19 1042.37 1651.04 1042.17 1653.51 1046.57C1656 1050.96 1660.8 1054.64 1664.43 1054.95C1668.06 1055.27 1670.24 1056.3 1670.43 1056.08C1671.53 1056.75 1672.74 1057.41 1673.97 1057.89C1678.02 1059.49 1681.2 1058.39 1681.2 1058.39C1682.98 1056.44 1683.93 1055.56 1683.93 1055.56C1683.93 1055.56 1683.9 1058.72 1682.77 1060.86C1682.91 1060.98 1683.04 1061.11 1683.2 1061.23C1684.95 1062.48 1687.45 1059.9 1689.61 1060.63C1691.77 1061.36 1692.48 1063.35 1698.17 1062.57C1703.86 1061.78 1704.26 1059.69 1709.38 1058.49C1714.51 1057.28 1722.51 1053.73 1725.52 1050.02C1728.53 1046.32 1729.5 1046.21 1735.73 1041.63C1739.73 1038.7 1741.37 1034.71 1742.03 1032.2C1740.14 1032.22 1737.52 1032.07 1736.96 1031.47C1736.22 1030.67 1738.33 1031.37 1740.97 1030.55C1743.61 1029.73 1746.85 1023.96 1746.85 1023.96C1748.59 1020.56 1748.06 1015.04 1749.7 1012.66C1751.36 1010.27 1756.18 1001.61 1756.74 996.231C1757.31 990.857 1752.95 989.963 1751.98 986.33C1751 982.68 1751.6 979.122 1741.61 971.725C1731.63 964.345 1721.2 966.689 1712.75 969.906C1704.29 973.123 1700.59 979.43 1696.71 989.744C1694.84 994.72 1695.23 998.964 1696.14 1002.01C1696.87 1003.84 1698.3 1006.8 1700.21 1008.01C1703.05 1009.79 1704.42 1009.84 1704.42 1009.84C1704.42 1009.84 1701.16 1011.26 1698.16 1009.76C1697.49 1009.44 1696.87 1008.97 1696.3 1008.46C1695.91 1008.7 1695.5 1008.98 1695.03 1009.3C1692.91 1010.8 1691.6 1015.41 1691.6 1015.41C1691.6 1015.41 1689.61 1013.11 1685.5 1012.32C1684.42 1012.12 1683.18 1012.17 1681.91 1012.34C1681.3 1011.27 1680.6 1009.68 1680.47 1007.86L1680.42 1007.12C1679.49 1006.92 1678.44 1006.67 1677.47 1006.4C1674.89 1005.69 1673.93 1002.75 1673.93 1002.75C1673.93 1002.75 1674.81 1003.7 1677.24 1004.09C1678.8 1004.35 1680.67 1004.35 1681.82 1004.34C1683.74 1003.88 1687.03 1002.14 1689.57 995.74C1693.39 986.09 1690.3 981.513 1690.97 977.808C1691.65 974.103 1693.29 967.953 1683.73 961.371C1674.17 954.772 1668.78 955.055 1668.78 955.055L1668.81 955.04Z" fill="#FBD008"/>
<path d="M70.7408 699.918C70.7408 699.918 71.0935 686.515 66.8504 681.534C62.6074 676.554 60.3629 675.105 59.9281 672.375C59.4932 669.645 58.0089 667.766 57.0942 666.785C54.5781 664.055 53.3808 663.983 50.74 661.118C48.1157 658.258 43.6261 652.627 32.871 651.965C28.5123 651.691 25.5791 651.994 23.4021 652.475C21.5868 653.041 18.7908 654.09 17.3322 655.575C15.0331 657.907 14.385 659.338 14.385 659.338C14.385 659.338 13.8989 656.457 15.374 654.385C12.1487 654.307 7.57828 653.53 4.33444 655.083C0.581874 656.882 1.36131 657.256 -2.19876 658.753C-5.75884 660.249 -7.75581 659.519 -10.1767 661.927C-12.5977 664.334 -12.561 665.213 -17.4306 666.82C-22.2876 668.447 -26.8818 672.502 -27.9063 676.055C-28.9309 679.608 -30.3828 681.581 -30.1952 681.817C-31.0792 682.775 -31.9739 683.853 -32.6917 684.99C-35.0741 688.711 -34.6016 692.093 -34.6016 692.093C-33.0071 694.243 -32.3157 695.362 -32.3157 695.362C-32.3157 695.362 -35.4587 694.711 -37.3686 693.167C-37.5185 693.288 -37.6645 693.393 -37.8183 693.531C-39.3997 695.022 -37.3266 698.014 -38.4748 700.024C-39.623 702.034 -41.7448 702.354 -42.0705 708.177C-42.3961 713.999 -40.3982 714.799 -40.1938 720.137C-39.9894 725.475 -38.0146 734.134 -34.9155 737.854C-31.8164 741.574 -31.8929 742.566 -28.5466 749.668C-26.407 754.224 -22.7565 756.63 -20.3892 757.777C-20.034 755.894 -19.377 753.316 -18.6662 752.874C-17.7319 752.293 -18.8356 754.261 -18.5351 757.046C-18.2347 759.831 -13.1154 764.182 -13.1154 764.182C-10.0712 766.584 -4.47567 767.132 -2.4189 769.233C-0.365994 771.35 7.32265 777.835 12.5641 779.448C17.8056 781.061 19.5469 776.893 23.3534 776.638C27.1803 776.37 30.6066 777.661 39.9208 769.163C49.2185 760.661 48.9181 749.819 47.364 740.771C45.81 731.723 40.2527 726.8 30.7371 720.93C26.1466 718.095 21.8431 717.659 18.6313 717.967C16.67 718.342 13.4369 719.184 11.8661 720.852C9.5322 723.332 9.21483 724.684 9.21483 724.684C9.21483 724.684 8.44544 721.162 10.5183 718.465C10.9729 717.858 11.5638 717.335 12.1761 716.87C12.0185 716.433 11.8154 715.967 11.5911 715.445C10.5092 713.033 6.16915 710.832 6.16915 710.832C6.16915 710.832 8.85207 709.303 10.4366 705.36C10.8526 704.326 11.0404 703.083 11.1208 701.779C12.3075 701.379 14.027 700.999 15.8655 701.222L16.6082 701.309C16.9893 700.424 17.4469 699.435 17.9054 698.516C19.1175 696.086 22.2258 695.702 22.2258 695.702C22.2258 695.702 21.1087 696.397 20.2477 698.735C19.6866 700.239 19.3189 702.102 19.1011 703.252C19.186 705.255 20.2803 708.87 26.1579 712.651C35.0236 718.334 40.1843 716.152 43.7431 717.543C47.3019 718.935 53.1051 721.776 61.5256 713.538C69.9626 705.304 70.7321 699.881 70.7321 699.881L70.7408 699.918Z" fill="#FBD008"/>
<path d="M418.119 400.562C418.119 400.562 431.526 400.66 436.425 396.323C441.324 391.985 442.73 389.714 445.451 389.227C448.172 388.74 450.023 387.221 450.985 386.287C453.668 383.72 453.717 382.521 456.531 379.827C459.341 377.148 464.885 372.552 465.342 361.787C465.533 357.423 465.174 354.497 464.652 352.329C464.051 350.525 462.949 347.749 461.437 346.319C459.062 344.065 457.618 343.444 457.618 343.444C457.618 343.444 460.49 342.903 462.59 344.339C462.607 341.113 463.296 336.528 461.682 333.314C459.811 329.597 459.452 330.383 457.888 326.852C456.325 323.321 457.016 321.311 454.563 318.936C452.11 316.561 451.232 316.615 449.533 311.777C447.814 306.952 443.672 302.435 440.1 301.479C436.528 300.522 434.527 299.108 434.296 299.3C433.321 298.434 432.226 297.56 431.076 296.864C427.31 294.553 423.937 295.09 423.937 295.09C421.819 296.725 420.713 297.437 420.713 297.437C420.713 297.437 421.303 294.283 422.811 292.344C422.687 292.196 422.579 292.052 422.438 291.901C420.918 290.348 417.965 292.478 415.934 291.368C413.902 290.259 413.542 288.143 407.714 287.928C401.887 287.714 401.125 289.726 395.792 290.032C390.459 290.338 381.839 292.477 378.179 295.647C374.518 298.816 373.525 298.758 366.489 302.239C361.974 304.465 359.638 308.161 358.536 310.55C360.426 310.869 363.015 311.477 363.471 312.179C364.07 313.102 362.081 312.036 359.302 312.389C356.523 312.743 352.27 317.944 352.27 317.944C349.927 321.033 349.486 326.638 347.424 328.735C345.346 330.827 339.009 338.638 337.496 343.909C335.983 349.181 340.183 350.842 340.511 354.643C340.851 358.464 339.625 361.914 348.3 371.065C356.977 380.2 367.811 379.693 376.828 377.967C385.845 376.241 390.662 370.591 396.349 360.965C399.096 356.322 399.45 352.011 399.081 348.805C398.669 346.852 397.765 343.635 396.068 342.096C393.544 339.81 392.186 339.518 392.186 339.518C392.186 339.518 395.692 338.682 398.429 340.703C399.045 341.146 399.578 341.727 400.055 342.33C400.489 342.165 400.951 341.953 401.469 341.719C403.859 340.591 405.978 336.21 405.978 336.21C405.978 336.21 407.557 338.863 411.53 340.372C412.571 340.769 413.818 340.933 415.123 340.988C415.546 342.167 415.958 343.879 415.77 345.721L415.697 346.466C416.589 346.83 417.587 347.269 418.514 347.71C420.967 348.875 421.411 351.976 421.411 351.976C421.411 351.976 420.695 350.872 418.34 350.056C416.826 349.523 414.956 349.191 413.803 348.995C411.801 349.118 408.207 350.281 404.539 356.23C399.027 365.202 401.306 370.32 399.982 373.905C398.658 377.489 395.928 383.345 404.326 391.608C412.719 399.886 418.155 400.553 418.155 400.553L418.119 400.562Z" fill="#FBD008"/>
<path d="M1807.32 353.522C1800.16 355.373 1787.15 358.389 1778.94 360.881C1770.73 363.373 1744.52 382.074 1739.79 391.917C1735.06 401.76 1719.72 417.345 1731.47 431.226C1731.47 431.226 1718.86 445.542 1717.79 457.93C1716.73 470.319 1712.19 479.383 1719.43 487.134C1726.67 494.899 1735.51 501.43 1742.03 499.669C1742.03 499.669 1766.49 493.939 1775.34 485.418C1784.19 476.898 1795.29 467.479 1795.29 467.479C1795.29 467.479 1806.76 469.077 1810.03 463.369C1813.29 457.648 1817.61 448.226 1821.6 442.929C1825.57 437.62 1851.17 403.119 1844.36 379.598C1837.56 356.076 1814.51 351.67 1807.33 353.509L1807.32 353.522ZM1780.83 448.491L1781.34 450.275L1780.2 451.731C1779.06 453.187 1777.86 454.541 1776.63 455.832C1762.1 470.988 1742.4 474.813 1741.5 474.986L1738.66 475.522L1737.53 472.873C1735.77 468.766 1737.86 463.598 1740.34 458.242C1741.84 454.984 1748.84 449.561 1754.45 445.573C1760.01 441.625 1767.31 436.854 1770.52 436.62C1776.53 436.161 1779.71 444.796 1780.81 448.53L1780.83 448.491ZM1765.58 414.558C1765.05 415.059 1764.61 415.469 1764.28 415.785C1760.15 419.885 1755.72 419.382 1755.23 419.314L1753.34 419.043L1752.5 417.331C1750.21 412.666 1754.68 407.218 1759.87 400.902C1761.94 398.368 1764.08 395.768 1765.53 393.493C1770.54 385.567 1788.18 377.744 1790.18 376.877L1794.89 374.831L1795.2 379.975C1795.36 382.579 1793.54 384.979 1783.14 395.997C1780.58 398.721 1778.14 401.288 1776.56 403.154C1774.67 405.361 1772.94 407.243 1771.42 408.836C1768.94 411.417 1766.98 413.251 1765.59 414.545L1765.58 414.558ZM1822.99 390.712C1824.72 399.196 1808.56 428.236 1806.5 430.68C1806.39 430.785 1806.29 430.89 1806.19 430.996C1805.04 432.194 1803.6 432.882 1802 432.992C1798.9 433.224 1796.39 431.171 1795.9 430.755L1795.37 430.301L1795.06 429.675C1794.49 428.551 1789.46 418.47 1788.97 413.226C1788.52 408.627 1793.42 403.143 1803.87 393.286C1805.37 391.887 1806.66 390.673 1807.25 390.028C1811.35 385.568 1815.01 383.75 1818.21 384.64C1819.92 385.121 1822.16 386.56 1823 390.699L1822.99 390.712Z" fill="#3E000A"/>
<path d="M237.121 566.503C244.49 567.937 257.725 570.857 266.33 572.159C274.936 573.461 307.12 567.785 315.749 560.834C324.378 553.882 345.238 546.307 340.544 528.463C340.544 528.463 358.344 520.856 364.734 509.975C371.125 499.095 379.241 492.774 375.99 482.509C372.757 472.237 367.508 462.391 360.768 461.156C360.768 461.156 335.855 455.718 324.029 459.657C312.202 463.597 297.92 467.375 297.92 467.375C297.92 467.375 288.109 460.901 282.622 464.701C277.141 468.519 269.065 475.261 263.099 478.37C257.138 481.497 218.621 501.918 214.58 526.436C210.54 550.955 229.728 565.059 237.104 566.51L237.121 566.503ZM302.875 491.087L303.18 489.227L304.863 488.392C306.546 487.558 308.233 486.84 309.93 486.198C329.853 478.66 349.573 483.764 350.473 483.998L353.31 484.748L353.188 487.668C353.002 492.197 348.827 496.017 344.219 499.841C341.419 502.169 332.645 504.081 325.757 505.28C318.945 506.47 310.171 507.65 307.129 506.462C301.428 504.259 302.282 494.958 302.903 491.056L302.875 491.087ZM302.017 528.829C302.723 528.602 303.307 528.421 303.747 528.274C309.321 526.324 313.155 528.718 313.576 528.994L315.19 530.068L315.21 532.003C315.265 537.274 308.797 540.316 301.283 543.833C298.276 545.248 295.183 546.695 292.863 548.148C284.808 553.217 265.232 552.677 263.026 552.6L257.81 552.413L259.776 547.566C260.766 545.111 263.48 543.707 277.825 538.161C281.361 536.784 284.712 535.496 286.979 534.479C289.673 533.282 292.076 532.313 294.171 531.521C297.563 530.237 300.16 529.413 302 528.836L302.017 528.829ZM239.016 525.594C241.131 517.064 268.624 497.525 271.582 496.189C271.72 496.136 271.858 496.084 271.997 496.031C273.572 495.435 275.195 495.436 276.707 496.033C279.653 497.178 281.057 500.155 281.321 500.748L281.605 501.394L281.616 502.103C281.644 503.381 281.855 514.816 280.013 519.833C278.416 524.242 271.532 527.124 257.647 531.585C255.669 532.215 253.957 532.763 253.133 533.095C247.432 535.391 243.281 535.455 240.743 533.244C239.383 532.055 237.96 529.759 238.999 525.6L239.016 525.594Z" fill="#3E000A"/>
<path d="M1987.27 586.684C1987.31 587.042 1987.34 587.399 1987.37 587.751C1987.54 591.723 1986.62 597.366 1986.24 597.721C1985.84 598.071 1985.26 590.821 1982.95 585.233C1982.3 583.662 1981.56 582.391 1980.81 581.369C1980.06 580.619 1978.85 579.398 1977.41 578.037C1977.2 577.903 1977.08 577.841 1977.08 577.841L1977.24 577.899C1974.45 575.238 1970.89 572.12 1968.44 570.883C1963.83 568.566 1962.99 573.307 1961.3 575.373C1957.91 579.503 1957.28 583.854 1959.41 591.204C1962.95 603.409 1962.84 604.386 1963.43 610.19C1964.03 615.994 1962.45 620.436 1962.45 620.436C1962.45 620.436 1960.82 606.501 1955.34 598.157C1953.57 595.479 1952.06 592.593 1950.94 589.683C1942.72 596.463 1931.03 609.375 1931.03 609.375C1931.03 609.375 1918.81 624.704 1909.54 648.247C1907.35 654.342 1906.03 659.868 1906.46 663.721C1908.13 678.842 1908.26 686.767 1906.43 693.125C1905.19 697.424 1904.36 699.25 1903.95 699.969C1903.78 698.829 1903.69 697.687 1903.72 696.53C1903.22 690.265 1901.62 675.592 1897.49 667.935C1896.73 666.521 1896.2 664.998 1895.84 663.443C1884.75 672.306 1875.63 684.329 1872.17 688.298C1869.76 691.048 1867.68 693.735 1865.78 696.445C1861.41 703.706 1857.42 712.38 1855.67 721.795C1853.18 735.193 1856.07 743.52 1854.76 751.673C1853.56 759.188 1851.44 766.91 1850.78 766.145C1850.71 766.076 1850.66 765.968 1850.61 765.771C1850.04 763.195 1851.4 759.825 1849.37 750.416C1848.17 744.783 1846.73 737.581 1846.09 728.962C1845.91 729.451 1845.76 729.919 1845.59 730.413C1845.59 730.413 1830.74 743.272 1820.52 755.493C1817.74 758.812 1806.17 772.008 1800.99 777.284C1795.65 782.712 1790.87 784.868 1793.36 792.272C1795.27 797.925 1803.29 802.591 1808.1 804.941C1808.02 803.697 1807.28 801.495 1807.18 799.244C1806.74 788.916 1808.46 786.62 1809.18 785.726C1810.18 784.457 1808.74 790.554 1810.23 795.768C1811.75 801.16 1813.64 806.296 1817.58 811.517C1818.13 811.878 1818.63 812.15 1819.03 812.281C1824.1 813.93 1830.63 807.826 1838.67 796.339C1846.14 785.652 1849.38 775.208 1850.79 771.706C1865.19 763.626 1878.43 746.436 1885.43 737.598C1898.54 721.05 1902.29 711.929 1904.86 704.059C1907.91 700.974 1931.58 676.97 1947.36 655.417C1955.43 644.395 1963.04 625.158 1963.04 625.158C1963.04 625.158 1970.51 621.105 1977.29 615.733C1980.67 613.041 1984.38 608.291 1987.08 602.94C1987.08 602.94 1993.96 599.552 1994.39 598.704C1995.98 595.479 1991.35 590.369 1987.22 586.665L1987.27 586.684Z" fill="#3E000A"/>
<path d="M452.14 531.762C453.786 525.81 436.552 517.833 436.156 517.769C436.191 517.807 425.916 510.48 420.882 509.064C415.847 507.648 415.917 512.536 414.625 514.918C412.041 519.681 411.827 525.031 415.368 531.936C421.253 543.412 421.743 543.512 423.462 549.183C425.167 554.85 424.452 559.583 424.452 559.583C424.452 559.583 420.144 546.013 413.062 538.76C410.782 536.421 408.733 533.842 407.043 531.171C400.16 539.504 391.007 554.64 391.007 554.64C391.007 554.64 381.782 572.268 377.092 597.505C376.08 604.002 375.844 609.757 377.002 613.506C381.594 628.244 383.237 636.112 382.648 642.811C382.058 649.51 381.298 650.623 381.298 650.623C381.298 650.623 377.604 628.936 371.03 619.587C370.096 618.253 369.386 616.781 368.834 615.257C358.714 625.515 350.967 638.722 347.952 643.135C345.856 646.194 344.076 649.151 342.488 652.109C338.947 659.95 335.963 669.168 335.329 678.865C334.423 692.664 338.326 700.711 337.989 709.083C337.674 716.8 336.463 724.835 335.701 724.143C335.628 724.082 335.564 723.979 335.492 723.786C334.604 721.259 335.571 717.701 332.402 708.461C330.518 702.928 328.207 695.842 326.533 687.232C326.412 687.747 326.312 688.237 326.205 688.755C326.205 688.755 312.776 703.489 303.939 717.027C301.537 720.703 291.449 735.386 286.859 741.322C282.126 747.43 278.087 749.96 280.96 757.339C283.846 764.722 302.999 774.645 309.92 776.02C315.23 777.075 318.048 775.125 324.773 762.588C331.029 750.924 335.37 733.426 336.37 729.729C349.917 719.864 361.201 700.958 367.198 691.214C378.754 672.46 379.488 665.15 381.137 656.748C381.137 656.748 407.451 612.787 416.153 597.325C422.947 585.244 425.948 564.145 425.948 564.145C425.948 564.145 432.373 554.385 438.088 547.715C443.275 541.669 451.515 533.801 452.077 531.718L452.14 531.762Z" fill="#3E000A"/>
<path d="M433.431 -71.5288C435.077 -77.481 417.843 -85.4576 417.447 -85.5211C417.482 -85.4835 407.207 -92.8101 402.173 -94.2263C397.138 -95.6425 397.208 -90.7548 395.916 -88.3729C393.332 -83.6092 393.118 -78.26 396.659 -71.3546C402.544 -59.8789 403.034 -59.7787 404.753 -54.1078C406.458 -48.4402 405.743 -43.7073 405.743 -43.7073C405.743 -43.7073 401.435 -57.278 394.353 -64.53C392.073 -66.87 390.024 -69.449 388.334 -72.1198C381.451 -63.7869 372.298 -48.6507 372.298 -48.6507C372.298 -48.6507 363.073 -31.0224 358.383 -5.78596C357.371 0.711349 357.135 6.46625 358.293 10.2155C362.885 24.9531 364.528 32.8217 363.939 39.5207C363.349 46.2197 362.589 47.3326 362.589 47.3326C362.589 47.3326 358.895 25.6455 352.321 16.2968C351.387 14.9627 350.677 13.4902 350.125 11.9668C340.005 22.225 332.258 35.4315 329.243 39.8447C327.147 42.9035 325.368 45.8607 323.779 48.8185C320.238 56.6591 317.254 65.8773 316.62 75.574C315.714 89.3734 319.617 97.4203 319.28 105.793C318.965 113.51 317.754 121.545 316.992 120.853C316.919 120.791 316.855 120.688 316.783 120.495C315.895 117.969 316.862 114.41 313.693 105.171C311.809 99.6376 309.498 92.5514 307.824 83.9418C307.703 84.4563 307.603 84.9463 307.496 85.4641C307.496 85.4641 294.067 100.199 285.23 113.736C282.828 117.413 272.74 132.095 268.15 138.031C263.417 144.14 259.378 146.669 262.251 154.049C265.137 161.431 284.29 171.355 291.211 172.729C296.521 173.785 299.339 171.834 306.064 159.298C312.32 147.634 316.661 130.136 317.661 126.438C331.208 116.574 342.492 97.6677 348.489 87.9238C360.045 69.1699 360.779 61.859 362.428 53.4572C362.428 53.4572 388.742 9.49632 397.444 -5.96588C404.238 -18.0463 407.239 -39.1454 407.239 -39.1454C407.239 -39.1454 413.664 -48.906 419.379 -55.576C424.566 -61.6216 432.806 -69.4893 433.368 -71.5729L433.431 -71.5288Z" fill="#3E000A"/>
<path d="M148.115 895.943C123.552 905.197 94.3506 877.998 110.053 833.341C115.311 818.38 122.672 803.953 128.566 789.463C139.864 761.799 139.652 743.522 137.49 726.92C137.357 725.948 137.504 724.64 138.807 724.145C140.103 723.658 141.066 724.545 141.609 725.368C150.935 739.269 162.847 753.136 189.579 766.47C203.564 773.467 218.618 779.449 232.446 787.221C273.708 810.414 269.701 850.129 245.159 859.378L148.114 895.948L148.115 895.943Z" fill="#3E000A"/>
<path d="M298.102 298.346C299.493 285.299 299.141 271.483 299.895 258.414C301.313 233.452 307.937 221.088 315.415 210.931C315.862 210.338 316.218 209.372 315.432 208.341C314.64 207.304 313.605 207.382 312.914 207.651C301.076 212.099 287.341 215.14 262.794 209.802C249.942 207.03 236.664 202.983 223.665 200.829C199.466 196.81 186.048 206.671 182.996 219.409C177.675 237.253 185.729 265.629 205.122 291.429C230.426 325.099 265.421 341.613 283.28 328.318C283.304 328.301 283.328 328.278 283.352 328.261C290.685 323.268 296.475 313.588 298.102 298.352L298.102 298.346Z" fill="#3E000A"/>
<path d="M205.02 443.52L202.14 437.171L206.362 424.165L119.242 331.416L105.99 334.812L99.8374 331.537L78.3468 351.714L183.529 463.697L205.02 443.52Z" fill="#3E000A"/>
<path d="M103.148 493.25C98.3037 497.539 95.8536 503.414 95.8536 503.414C95.6814 503.438 95.5093 503.462 95.3371 503.485C99.5848 504.78 103.274 506.443 105.659 508.242C114.412 514.832 123.294 517.749 123.294 517.749C123.294 517.749 120.037 521.274 100.525 514.146C92.5735 511.238 85.2018 508.269 79.0153 507.907C76.5606 507.759 74.3005 508.044 72.4586 508.423C71.082 508.806 69.7096 509.203 68.3414 509.614C68.0225 509.743 67.8358 509.816 67.8358 509.816L67.7916 509.77C49.1419 515.365 31.6654 523.047 25.204 528.676C15.4591 537.165 -10.0209 549.655 -17.7156 549.927C-25.424 550.203 -40.8299 554.01 -61.4216 562.258C-82.0134 570.505 -112.577 594.684 -119.284 598.61C-119.929 598.99 -120.887 599.422 -122.08 599.913C-112.448 601.252 -105.339 605.154 -100.108 606.726C-87.9119 610.39 -84.4933 609.117 -84.4933 609.117C-84.4933 609.117 -91.9103 611.964 -98.9991 611.538C-110.962 610.836 -118.714 606.835 -135.715 607.057C-142.24 607.144 -143.212 606.714 -151.165 608.367C-159.118 610.02 -167.162 613.689 -168.762 614.411C-172.295 615.989 -168.371 619.418 -168.371 619.418C-168.371 619.418 -165.558 626.437 -155.768 632.898C-150.307 636.506 -143.505 638.411 -143.505 638.411C-143.505 638.411 -149.168 639.636 -156.557 637.285C-158.317 636.727 -160.053 635.906 -161.688 634.98C-161.588 635.203 -161.485 635.44 -161.385 635.663C-158.688 641.686 -158.784 644.886 -154.349 649.62C-150.232 654.005 -145.369 648.575 -145.369 648.575C-145.369 648.575 -141.635 644.662 -134.722 642.167C-111.275 633.718 -103.493 623.537 -93.766 618.163C-76.3772 608.565 -55.7686 607.967 -35.6845 599.579C-15.5962 591.204 12.365 577.553 27.512 567.338C27.5529 567.325 27.5895 567.298 27.6262 567.272C23.4643 566.878 19.2912 565.919 15.5555 564.106C0.569489 556.765 -7.27004 552.581 -7.27004 552.581C-7.27004 552.581 -4.87362 549.802 5.78403 553.811C14.626 557.13 29.0283 563.173 58.0325 558.931C61.9247 558.362 65.6015 557.726 69.0986 557.042C74.6391 555.616 79.6762 554.064 83.374 552.39C98.3561 545.634 129.522 520.266 129.522 520.266C129.522 520.266 139.372 520.43 139.82 512.591C140.033 508.757 126.806 485.29 122.554 483.742C118.423 482.247 107.389 489.478 103.13 493.241L103.148 493.25Z" fill="#3E000A"/>
<path d="M1836.37 216.81L1826.18 217.374L1810.63 204.618L1637.95 274.378L1635.61 294.343L1627.89 301.019L1644.15 341.224L1852.6 257.046L1836.37 216.81Z" fill="#3F000B"/>
<path d="M1519.03 653.518C1520.86 666.317 1524.54 679.428 1526.99 692.095C1531.67 716.282 1528.34 729.696 1523.66 741.208C1523.37 741.882 1523.27 742.891 1524.27 743.686C1525.27 744.485 1526.24 744.16 1526.84 743.736C1537.07 736.621 1549.45 730.392 1574.19 729.549C1587.14 729.087 1600.8 729.738 1613.74 728.65C1637.83 726.631 1648.26 713.964 1648.09 701.058C1648.85 682.726 1634.29 657.569 1609.52 637.619C1577.2 611.582 1539.78 604.278 1525.94 621.3C1525.92 621.322 1525.9 621.35 1525.88 621.372C1520.09 627.916 1516.9 638.564 1519.03 653.512L1519.03 653.518Z" fill="#3E000A"/>
<path d="M1620.14 1141.55L1617.23 1131.78L1626.03 1113.69L1518.09 961.921L1498.13 964.279L1489.84 958.319L1454.51 983.458L1584.77 1166.69L1620.14 1141.55Z" fill="#3F000B"/>
</g>
<defs>
<clipPath id="clip0_1059_690">
<rect width="1920" height="1080" fill="white"/>
</clipPath>
</defs>
</svg>
