<svg fill="none" height="1080" viewBox="0 0 1920 1080" width="1920" xmlns="http://www.w3.org/2000/svg" xmlns:xlink="http://www.w3.org/1999/xlink"><clipPath id="a"><path d="m0 0h1920v1080h-1920z"/></clipPath><g clip-path="url(#a)" fill="#fff"><path d="m-213.063 525.87c20.8 7.02 42.17 2.04 56.67-3.01 21-7.32 33.23-19.04 50.05-13.44l-5.97 31.61c-1.19 6.29 2.44 12.51 8.51 14.55l149.4097 50.44c6.07 2.05 12.72-.69 15.59-6.42l14.41-28.76c16.78 5.74 19.4 22.47 31.6703 41.03 8.47 12.81 22.45 29.71 43.25 36.74-10.08-33.78 46.95-76.15 38.1-112.87-20.81-7.02-42.17-2.05-56.67 3.01-21 7.32-33.2303 19.04-50.0503 13.44l5.97-31.62c1.19-6.29-2.44-12.5-8.51-14.55l-149.41-50.43c-6.07-2.05-12.72.69-15.59 6.41l-14.4097 28.77c-16.77-5.74-19.4-22.48-31.67-41.03-8.46-12.81-22.45-29.72-43.25-36.74 10.08 33.78-46.95 76.15-38.1 112.87z" opacity=".4"/><path d="m1902.33 755.535c-13.07 7.592-20.19 20.93-24.16 30.734-5.75 14.2-5.24 25.855-15.77 32.031l-13.63-17.426c-2.72-3.468-7.58-4.4-11.39-2.18l-93.91 54.563c-3.81 2.221-5.41 6.898-3.76 10.982l8.34 20.508c-10.59 6.086-20.43-.137-35.6-2.192-10.46-1.417-25.56-1.837-38.63 5.755 22.05 10.086 18.07 58.844 41.08 70.907 13.07-7.592 20.2-20.93 24.17-30.735 5.75-14.2 5.24-25.854 15.76-32.03l13.64 17.425c2.72 3.469 7.57 4.401 11.39 2.181l93.9-54.564c3.82-2.22 5.42-6.897 3.76-10.981l-8.33-20.508c10.58-6.086 20.43.136 35.59 2.192 10.46 1.417 25.56 1.837 38.63-5.755-22.04-10.087-18.06-58.845-41.08-70.907z" opacity=".4"/><path d="m231.682 628.553c-7.917 9.994-9.391 22.652-9.475 31.571-.119 12.919 3.892 21.905-2.476 30.002l-16.113-9.471c-3.209-1.887-7.315-1.122-9.63 1.798l-56.892 71.792c-2.315 2.92-2.123 7.092.446 9.78l12.903 13.525c-6.43 8.042-16.092 6.201-28.649 9.264-8.66 2.115-20.655 6.442-28.5717 16.436 20.4427 1.122 32.4157 40.607 54.2277 42.985 7.917-9.995 9.39-22.653 9.474-31.572.119-12.919-3.892-21.905 2.477-30.001l16.113 9.47c3.208 1.887 7.315 1.122 9.63-1.797l56.891-71.793c2.315-2.919 2.124-7.091-.445-9.78l-12.903-13.524c6.43-8.043 16.092-6.201 28.649-9.265 8.66-2.115 20.654-6.441 28.571-16.435-20.442-1.123-32.415-40.607-54.227-42.985z" opacity=".4"/><path d="m1705.09 629.47c-4.39 9.536-3.11 19.951-1.44 27.103 2.42 10.359 7.38 16.768 3.86 24.485l-14.74-4.442c-2.93-.886-6.07.525-7.35 3.312l-31.55 68.509c-1.29 2.786-.32 6.087 2.26 7.738l12.95 8.31c-3.58 7.686-11.67 8.093-21.12 12.986-6.52 3.378-15.27 9.173-19.66 18.71 16.57-3.08 33.84 26.182 51.75 23.84 4.39-9.536 3.11-19.951 1.44-27.103-2.42-10.359-7.38-16.768-3.86-24.485l14.74 4.442c2.93.885 6.07-.526 7.35-3.312l31.55-68.509c1.28-2.786.32-6.087-2.26-7.738l-12.95-8.311c3.58-7.685 11.66-8.092 21.12-12.986 6.51-3.377 15.27-9.172 19.66-18.709-16.58 3.08-33.84-26.182-51.75-23.84z" opacity=".4"/><path d="m1674.04 524.182c17.32 9.6 37.1 8.629 50.77 6.474 19.82-3.117 32.56-11.562 46.59-3.867l-10.39 27.136c-2.08 5.406.15 11.505 5.2 14.313l124.48 68.961c5.05 2.799 11.4 1.443 14.86-3.184l17.44-23.24c13.96 7.811 13.59 23.105 21.49 41.584 5.45 12.755 15.13 30.041 32.46 39.641-3.5-31.657 53.94-60.111 52.01-94.182-17.32-9.6-37.1-8.629-50.77-6.474-19.82 3.117-32.56 11.562-46.59 3.867l10.39-27.136c2.07-5.406-.15-11.505-5.2-14.314l-124.48-68.96c-5.05-2.799-11.4-1.443-14.86 3.184l-17.43 23.24c-13.97-7.811-13.6-23.115-21.49-41.584-5.45-12.755-15.13-30.041-32.46-39.641 3.5 31.657-53.94 60.111-52.01 94.182" opacity=".4"/><path d="m0 180.712c8.21583 16.15 23.67 25.54 35.1218 30.916 16.5911 7.791 30.5328 7.92 37.2258 20.932l-21.7048 15.236c-4.3214 3.034-5.7516 8.797-3.3542 13.508l59.0184 116.002c2.397 4.71 7.891 6.934 12.876 5.2l25.039-8.683c6.585 13.074-1.492 24.471-4.944 42.514-2.377 12.455-3.863 30.514 4.347 46.663 13.494-25.777 71.463-17.909 87.375-44.712-8.216-16.15-23.67-25.54-35.122-30.916-16.591-7.791-30.533-7.92-37.226-20.932l21.705-15.236c4.322-3.034 5.752-8.797 3.354-13.508l-59.018-116.002c-2.397-4.71-7.891-6.934-12.876-5.205l-25.0389 8.683c-6.5799-13.069 1.497-24.472 4.949-42.509 2.3768-12.455 3.8635-30.514-4.3523-46.663-13.4941 25.777-71.4679 17.909-87.3748 44.718" opacity=".4"/></g></svg>