<svg width="1920" height="1080" viewBox="0 0 1920 1080" fill="none" xmlns="http://www.w3.org/2000/svg">
<g clip-path="url(#clip0_1059_491)">
<path d="M158.267 404.178C143.773 394.12 148.432 389.299 153.004 378.908C155.13 374.065 162.802 370.731 168.2 368.394C168.2 368.394 137.373 342.577 158.473 323.785C179.587 305.001 201.23 310.93 210.037 320.253C218.857 329.584 239.27 321.479 228.443 362.399C228.443 362.399 244.51 356.648 245.772 370.811C247.033 384.975 238.653 395.483 230.811 393.564C230.811 393.564 233.568 421.026 209.972 413.101C209.972 413.101 193.047 407.243 184.068 394.956C184.068 394.956 171.827 413.575 158.254 404.17" fill="white" fill-opacity="0.75"/>
<path d="M1673.25 544.294C1687.77 553.836 1683.31 558.698 1679.06 569.04C1677.09 573.861 1669.62 577.333 1664.36 579.768C1664.36 579.768 1695.35 604.418 1675.05 623.442C1654.73 642.457 1633.27 637.158 1624.37 628.198C1615.46 619.231 1595.56 627.717 1605.21 587.165C1605.21 587.165 1589.53 593.225 1587.94 579.313C1586.35 565.401 1594.34 554.849 1602.1 556.543C1602.1 556.543 1598.71 529.577 1622.13 536.793C1622.13 536.793 1638.94 542.14 1648.08 554.013C1648.08 554.013 1659.67 535.38 1673.27 544.302" fill="white" fill-opacity="0.5"/>
<path d="M146.445 845.686C152.144 831.459 157.112 834.436 166.766 836.251C171.267 837.11 175.553 842.921 178.572 847.027C178.572 847.027 194.433 815.876 214.347 830.025C234.262 844.174 233.413 863.638 227.241 872.927C221.068 882.215 231.831 897.888 195.21 896.792C195.21 896.792 203.156 909.249 191.437 913.108C179.726 916.956 169.251 911.941 169.356 904.939C169.356 904.939 146.705 912.671 148.861 891.17C148.861 891.17 150.549 875.717 159.189 865.698C159.189 865.698 141.109 859.017 146.445 845.686Z" fill="white" fill-opacity="0.75"/>
<path d="M63.7237 649.197C47.2248 662.769 43.0915 655.747 32.4534 646.969C27.4818 642.882 26.1059 632.855 25.1288 625.774C25.1288 625.774 -15.1547 653.187 -30.1822 622.368C-45.2462 591.571 -31.2066 568.303 -17.4224 561.117C-3.62816 553.914 -6.42407 527.438 37.8704 553.567C37.8704 553.567 36.4051 532.924 53.386 536.153C70.3505 539.371 79.8781 552.607 75.0854 561.105C75.0854 561.105 108.074 566.97 91.0892 591.844C91.0892 591.844 78.7111 609.638 61.3976 616.049C61.3976 616.049 79.1564 636.484 63.7072 649.187" fill="white" fill-opacity="0.75"/>
<path d="M419.042 178.59C405.673 189.588 402.324 183.898 393.704 176.785C389.675 173.473 388.56 165.349 387.768 159.611C387.768 159.611 355.126 181.824 342.95 156.851C330.743 131.896 342.119 113.042 353.289 107.218C364.466 101.382 362.201 79.9285 398.093 101.101C398.093 101.101 396.906 84.3739 410.665 86.9901C424.412 89.5982 432.132 100.323 428.249 107.209C428.249 107.209 454.98 111.962 441.217 132.117C441.217 132.117 431.186 146.536 417.157 151.73C417.157 151.73 431.547 168.289 419.029 178.582" fill="white" fill-opacity="0.75"/>
<path d="M1589.07 1064.48C1574.15 1072.73 1571.93 1066.62 1564.86 1058.19C1561.55 1054.26 1561.93 1046.19 1562.19 1040.49C1562.19 1040.49 1526.6 1056.15 1519.28 1029.79C1511.94 1003.43 1526.33 987.217 1538.19 983.581C1550.06 979.933 1551.71 958.753 1582.67 985.689C1582.67 985.689 1584.52 969.279 1597.38 974.278C1610.22 979.268 1615.77 991.037 1610.78 997.009C1610.78 997.009 1635.81 1006.4 1618.87 1023.45C1618.87 1023.45 1606.57 1035.62 1592.06 1038.13C1592.06 1038.13 1603.02 1056.74 1589.06 1064.47" fill="white" fill-opacity="0.5"/>
<path d="M1899.63 923.045C1884.71 931.298 1882.49 925.188 1875.41 916.755C1872.11 912.826 1872.48 904.759 1872.75 899.061C1872.75 899.061 1837.16 914.719 1829.84 888.354C1822.5 862.003 1836.89 845.785 1848.75 842.149C1860.62 838.501 1862.27 817.321 1893.23 844.256C1893.23 844.256 1895.08 827.847 1907.94 832.846C1920.78 837.836 1926.33 849.605 1921.34 855.577C1921.34 855.577 1946.37 864.97 1929.43 882.019C1929.43 882.019 1917.13 894.183 1902.62 896.698C1902.62 896.698 1913.58 915.311 1899.62 923.035" fill="white" fill-opacity="0.5"/>
<path d="M1855.14 412.986C1868.03 401.827 1871.47 407.346 1880.13 414.134C1884.18 417.295 1885.48 425.265 1886.4 430.894C1886.4 430.894 1917.98 408.217 1930.59 432.499C1943.23 456.763 1932.5 475.606 1921.64 481.616C1910.79 487.639 1913.55 508.703 1877.69 488.75C1877.69 488.75 1879.27 505.187 1865.66 502.953C1852.07 500.727 1844.2 490.36 1847.85 483.485C1847.85 483.485 1821.42 479.47 1834.47 459.286C1834.47 459.286 1843.98 444.843 1857.67 439.381C1857.67 439.381 1843.09 423.437 1855.16 412.994" fill="white" fill-opacity="0.5"/>
<path d="M1748.64 1095.64C1752.65 1097.08 1756.91 1102.35 1760.38 1102.88C1763.86 1103.41 1765.76 1100.75 1773.86 1096.58C1781.97 1092.42 1807.91 1093.73 1825.41 1073.81C1842.9 1053.88 1841.28 1019.45 1841.28 1019.45C1841.31 1013.55 1849.31 1006.7 1843.73 1002.62C1838.12 998.556 1832.55 985.433 1832.78 978.768C1833.01 972.103 1823.21 956.456 1816.13 949.65C1809.06 942.844 1776.82 918.826 1754.36 945.992C1731.91 973.159 1737.56 997.611 1737.56 997.611C1737.56 997.611 1702.49 998.724 1692.53 1012.31C1682.56 1025.88 1668.42 1040.02 1690.35 1067.49C1712.28 1094.94 1744.62 1094.21 1748.64 1095.64ZM1772.75 966.702C1781.18 957.426 1790.94 955.634 1798.11 961.611C1805.27 967.588 1814.03 990.01 1814.03 990.01C1814.03 990.01 1815.24 994.288 1813.7 996.584C1812.17 998.879 1811.89 998.973 1797.92 1001.67C1783.94 1004.37 1772.51 1008.88 1763.5 999.981C1754.48 991.084 1764.33 975.952 1772.77 966.689L1772.75 966.702ZM1777.83 1033.19C1782.74 1027.87 1812.62 1024.93 1812.62 1024.93C1812.62 1024.93 1818.54 1024.61 1818.14 1030.37C1817.73 1036.13 1820.54 1048.72 1808.66 1060.2C1796.78 1071.68 1782.09 1074.06 1778.8 1073.16C1775.51 1072.26 1773.62 1071.13 1772.88 1067.32C1772.15 1063.51 1774.25 1037.06 1777.83 1033.19ZM1712.76 1058.4C1706.39 1049.39 1705.35 1036.65 1716.3 1027.57C1727.26 1018.48 1735.01 1016.16 1747.04 1023.67C1747.04 1023.67 1756.3 1028.82 1753.22 1044.65C1750.14 1060.48 1751.82 1066.84 1748.1 1069.71C1744.37 1072.56 1719.13 1067.43 1712.77 1058.41L1712.76 1058.4Z" fill="#3E000A"/>
<path d="M190.556 48.9332C190.264 44.6098 193.447 38.511 192.535 35.0614C191.622 31.6118 188.37 30.9229 181.211 25.0612C174.051 19.1996 164.757 -5.48305 139.117 -13.703C113.477 -21.9229 82.0682 -6.45839 82.0682 -6.45839C76.5636 -4.08976 66.9479 -8.77426 65.4125 -1.9175C63.8947 4.94607 53.9336 15.4526 47.635 17.9397C41.3365 20.4269 30.7358 35.8891 27.2674 45.2384C23.799 54.5878 14.4967 94.3374 48.8907 104.237C83.2847 114.137 103.762 98.9655 103.762 98.9655C103.762 98.9655 119.009 131.169 135.691 134.939C152.367 138.725 171.271 146.166 187.963 114.614C204.63 83.0732 190.848 53.2567 190.556 48.9332ZM60.7234 78.7239C48.6727 74.6377 43.0468 66.2709 45.7088 57.177C48.3709 48.0831 65.7024 30.8473 65.7024 30.8473C65.7024 30.8473 69.1937 27.9847 71.9533 28.4834C74.7129 28.9821 74.9116 29.2006 83.0874 41.1229C91.2632 53.0452 100.093 61.8596 95.4607 73.8568C90.8284 85.854 72.7497 82.821 60.7058 78.7171L60.7234 78.7239ZM120.571 47.0532C113.637 44.6392 98.7845 18.0129 98.7845 18.0129C98.7845 18.0129 96.0941 12.6217 101.621 10.6665C107.148 8.71141 117.73 0.995407 133.231 7.40568C148.732 13.8159 156.906 26.5272 157.401 29.9575C157.897 33.3877 157.607 35.6039 154.361 37.8323C151.114 40.0607 125.63 48.8243 120.571 47.0532ZM170.413 97.433C164.611 107.015 153.166 113.142 140.274 106.626C127.365 100.103 122.064 93.8256 124.187 79.5839C124.187 79.5839 125.229 68.8725 141.216 65.3288C157.204 61.785 162.446 57.6348 166.632 59.9392C170.793 62.2545 176.24 87.8405 170.42 97.4154L170.413 97.433Z" fill="#3E000A"/>
<path d="M-22.6945 848.313C-19.7966 851.535 -18.5381 858.298 -15.6912 860.45C-12.8443 862.601 -9.86001 861.136 -0.609176 861.33C8.64166 861.524 31.1878 875.209 56.4357 865.854C81.6835 856.498 96.8536 824.946 96.8536 824.946C99.7231 819.686 110.18 817.437 107.157 811.095C104.115 804.757 105.469 790.343 108.891 784.499C112.312 778.655 111.111 759.946 108.07 750.449C105.029 740.952 87.8177 703.934 54.6452 717.37C21.4727 730.806 14.7228 755.381 14.7228 755.381C14.7228 755.381 -17.1487 739.451 -32.6013 746.78C-48.0595 754.092 -67.5265 759.903 -61.1887 795.031C-54.8384 830.136 -25.5924 845.091 -22.6945 848.313ZM61.0796 744.748C73.0836 740.526 82.6738 743.637 86.1913 752.436C89.7089 761.234 86.7084 785.492 86.7084 785.492C86.7084 785.492 85.7279 789.899 83.2487 791.21C80.7695 792.521 80.4783 792.471 66.6874 788.136C52.8966 783.8 40.509 782.314 36.7501 770.015C32.9912 757.716 49.0882 748.946 61.0977 744.742L61.0796 744.748ZM33.5335 806.602C40.479 804.223 68.5982 816.007 68.5982 816.007C68.5982 816.007 74.0422 818.589 70.8999 823.538C67.7576 828.488 64.1928 841.09 48.04 845.612C31.8871 850.134 17.6104 845.177 15.1037 842.783C12.597 840.39 11.4571 838.468 12.6364 834.711C13.8156 830.954 28.46 808.33 33.5335 806.602ZM-36.7766 797.72C-38.124 786.6 -32.9001 774.715 -18.7347 771.886C-4.55119 769.052 3.49345 770.721 10.6127 783.236C10.6127 783.236 16.403 792.308 6.01007 804.963C-4.38288 817.618 -5.94645 824.119 -10.662 824.888C-15.365 825.635 -35.4417 808.864 -36.7711 797.738L-36.7766 797.72Z" fill="#3E000A"/>
<path d="M1359.68 935.835C1361.91 939.474 1361.92 946.249 1364.29 948.842C1366.66 951.436 1369.81 950.552 1378.73 952.398C1387.66 954.244 1407.03 971.537 1433.16 967.004C1459.28 962.47 1479.63 934.638 1479.63 934.638C1483.35 930.058 1493.88 929.756 1492.09 923.072C1490.28 916.39 1494.17 902.676 1498.53 897.63C1502.89 892.584 1505.08 874.253 1503.84 864.512C1502.6 854.771 1492.57 815.841 1458.04 822.905C1423.51 829.97 1412.57 852.556 1412.57 852.556C1412.57 852.556 1384.56 831.417 1368.29 835.745C1352.01 840.053 1332.12 842.191 1331.96 877.342C1331.81 912.472 1357.45 932.196 1359.68 935.835ZM1459.36 850.569C1471.74 848.632 1480.47 853.364 1482.3 862.514C1484.13 871.665 1476.88 894.616 1476.88 894.616C1476.88 894.616 1475.14 898.708 1472.5 899.532C1469.87 900.357 1469.59 900.257 1457.02 893.587C1444.44 886.917 1432.71 883.257 1431.28 870.674C1429.84 858.091 1447 852.484 1459.38 850.567L1459.36 850.569ZM1421.6 905.525C1428.76 904.466 1453.87 920.918 1453.87 920.918C1453.87 920.918 1458.68 924.393 1454.75 928.622C1450.82 932.852 1445.11 944.415 1428.66 945.899C1412.21 947.382 1399.27 940.023 1397.27 937.256C1395.27 934.489 1394.51 932.423 1396.33 928.997C1398.15 925.57 1416.38 906.289 1421.6 905.525ZM1355.11 884.321C1355.8 873.312 1362.99 862.74 1377.21 862.54C1391.46 862.338 1398.95 865.396 1403.6 878.791C1403.6 878.791 1407.58 888.613 1395.25 899.004C1382.91 909.395 1380.23 915.409 1375.53 915.31C1370.84 915.189 1354.41 895.351 1355.12 884.34L1355.11 884.321Z" fill="#3E000A"/>
<path d="M1714.52 771.838C1712.78 768.015 1713.38 767.951 1709.36 760.901C1705.34 753.851 1699.02 752.535 1694.96 750.396C1690.93 748.281 1693.05 747.279 1687.56 744.815C1687.1 744.598 1686.64 744.446 1686.16 744.269L1686.11 744.298C1686.11 744.298 1685.7 744.116 1685.1 743.91C1680.52 742.432 1676.36 742.571 1674.44 742.44C1669.68 743.514 1665.67 745.972 1666.83 744.86C1667.67 744.045 1669.36 742.503 1671.66 741.064C1670.91 740.448 1669.97 739.722 1668.24 738.87C1664.34 736.975 1661.07 738.677 1657.7 737.659C1654.33 736.64 1653.38 732.633 1643.81 731.467C1634.23 730.301 1629.56 730.689 1622.58 733.76C1619.66 735.048 1617.73 735.392 1616.47 735.359C1613.67 733.728 1607.63 731.362 1600.62 735.897C1590.96 742.119 1593.69 742.59 1584.52 746.066C1575.32 749.558 1563.73 752.076 1559.88 759.325C1556.05 766.56 1560.72 763.7 1553.71 769.234C1546.71 774.767 1545.61 782.473 1545.61 782.473C1545.61 782.473 1531.42 795.76 1533.41 808.981C1535.38 822.178 1545.28 838.822 1559.09 842.919C1572.93 847.001 1579.08 847.55 1586.71 842.54C1587.93 841.756 1588.92 841.018 1589.83 840.325L1589.45 840.357C1589.45 840.357 1589.79 840.212 1590.3 839.939C1592.99 837.786 1594.28 836.125 1595.3 834.731C1595.47 834.421 1595.67 834.135 1595.81 833.776C1598.33 828.551 1597.35 823.624 1598.28 824.492C1599.06 825.22 1599.84 828.229 1600.2 830.787C1602.38 830.151 1604.68 830.185 1605.33 830.488C1609.16 832.364 1610.79 835.415 1619.37 831.4C1625.39 828.578 1629.37 825.033 1631.23 823.157C1640.34 826.349 1642.26 819.816 1642.26 819.816C1642.26 819.816 1641.6 824.909 1642.33 827.742C1643.4 831.943 1645.25 835.168 1645.25 835.168C1648.24 839.064 1651.33 839.415 1650.52 840.112C1649.28 841.205 1646.26 841.079 1643.36 839.508C1642.2 841.76 1640.54 844.349 1638.54 845.713C1634.44 848.524 1633.84 847.051 1629.8 848.921C1625.74 850.807 1625.11 854.244 1622.79 855.968C1622.79 855.968 1621.4 856.65 1619.88 857.28C1621.9 858.556 1623.1 859.965 1622.75 860.379C1622.03 861.223 1620.45 858.309 1611.36 859.792C1609.24 860.153 1607.56 860.578 1606.17 861.094C1605.21 861.548 1604.28 862.051 1603.33 862.671C1597.24 866.703 1588.15 880.847 1594.97 899.985C1600.15 914.496 1614.57 920.296 1621.26 922.261C1634.89 927.27 1650.85 915.716 1654.4 913.541C1659.28 910.547 1664.5 911.036 1676.67 905.418C1688.84 899.801 1688.53 896.303 1694.45 892.977C1700.37 889.651 1702.32 891.842 1712.58 879.123C1722.83 866.404 1723.3 847.693 1725 842.998C1726.69 838.278 1727.51 839.617 1729.31 834.53C1729.31 834.53 1729.74 832.827 1729.83 830.628C1729.66 827.247 1728.05 824.45 1728.21 823.245C1725.31 818.995 1721.86 817.023 1722.79 816.251C1723.54 815.623 1727 817.453 1729.76 820.049C1730.46 818.888 1731.17 817.545 1731.42 816.05C1731.97 812.965 1730.24 809.103 1729.64 805.181C1729.07 801.245 1729.64 797.211 1726.25 787.634C1722.83 778.073 1716.19 775.706 1714.44 771.859L1714.52 771.838Z" fill="#FBD008"/>
<path d="M127.334 221.652C127.334 221.652 127.122 216.85 125.134 214.346C123.632 212.464 124.106 211.635 123.049 206.404C121.162 197.101 120.286 193.013 115.864 188.43C108.733 181.036 100.836 178.676 97.3403 176.904C95.7304 176.395 94.0455 176.027 92.6209 176.036C88.1487 176.08 85.776 176.853 86.3845 176.257C86.9755 175.706 89.7693 174.69 94.4599 174.378C89.4642 169.406 78.4461 165.236 65.0502 171.599C55.8881 175.976 50.0651 182.564 48.7444 184.058C47.1216 185.873 44.5531 189.814 43.1996 193.21C43.021 193.652 42.8778 194.225 42.7434 194.886C42.1018 196.044 41.478 197.379 41.068 198.626C40.4001 200.636 40.3459 206.336 44.2191 211.889C47.5167 216.584 51.7358 219.356 51.7358 219.356C51.7358 219.356 51.935 224.472 53.3645 227.411C53.6424 227.964 53.9711 228.579 54.3417 229.167C55.3188 230.7 56.9134 231.501 58.2256 232.151C60.6405 233.361 63.6154 233.042 63.7323 233.544C63.8493 234.046 60.1447 235.756 56.6427 234.81C56.0252 234.649 55.7009 234.078 55.1892 233.861C54.0316 234.535 52.9291 235.315 52.1045 236.202C51.5819 236.767 51.0858 237.375 50.6118 237.981C50.6118 237.981 48.0671 238.816 47.0463 240.637C46.0256 242.459 45.9926 243.244 45.9705 243.022C45.9484 242.801 45.3617 241.833 45.9987 239.737C46.2147 239.001 46.4902 238.415 46.7791 237.962C46.3115 237.517 45.7204 236.951 44.9683 236.334C43.7045 235.276 41.8146 234.862 40.5509 234.698C40.7425 232.826 39.8093 230.172 38.6977 229.301C38.6558 229.327 37.7253 230.269 36.7926 230.518C35.7297 230.803 34.5057 230.59 34.6424 230.398C34.7791 230.206 36.3867 229.799 37.5704 226.934C38.7542 224.069 37.9489 221.805 37.9489 221.805L38.0019 221.889C37.2561 218.882 36.3253 217.814 36.3253 217.814C36.3253 217.814 37.5326 210.502 32.9384 206.428C30.0293 203.838 26.9815 202.758 24.0066 202.63C4.58788 192.846 -17.0824 211.134 -20.4491 216.227C-24.1111 221.707 -26.2069 230.826 -24.7882 235.441C-24.0623 237.803 -23.0057 239.908 -22.1211 241.405C-20.613 239.781 -19.0099 239.33 -19.0099 239.33C-19.0099 239.33 -19.788 241.128 -20.619 243.734C-20.619 243.734 -20.7645 244.284 -20.9385 245.217C-21.2734 247.439 -21.4405 250.895 -21.5173 253.248C-21.4221 255.538 -21.0468 257.957 -20.2151 260.264C-16.6168 269.976 -10.159 275.762 -7.2608 278.688C-5.27514 284.743 -6.34837 289.383 0.548709 297.56C9.76613 308.452 16.6846 312.384 23.4792 314.184C28.192 315.432 34.2454 314.939 38.883 314.766C37.8967 311.582 38.6174 308.54 38.9437 308.016C39.2876 307.446 40.7439 312.437 43.9551 314.93C45.6818 315.271 48.3703 316.767 51.643 317.645C53.2573 317.976 54.6797 318.168 55.5155 318.286C57.0834 318.375 58.7374 318.21 60.4419 317.66C64.0892 316.492 69.6988 313.117 73.6345 308.816C75.165 308.753 77.1276 308.78 79.1519 307.863C82.2831 306.434 87.1517 302.33 87.1517 302.33C87.1517 302.33 94.0563 302.109 100.074 297.243C106.241 292.317 108.779 288.066 108.779 288.066C108.779 288.066 118.068 283.185 120.758 275.547C123.447 267.909 121.902 270.944 125.859 263.961C128.756 258.848 128.883 251.422 128.743 247.796C128.619 247.227 128.474 246.661 128.304 246.075C126.334 239.952 124.435 239.896 125.48 239.658C126.329 239.462 128.008 240.656 129.922 243.547C130.78 241.875 131.758 239.187 131.747 235.504C131.726 228.829 127.345 221.763 127.345 221.763L127.334 221.652Z" fill="#FBD008"/>
<path d="M1830.31 603.606C1830.31 603.606 1828.64 589.835 1823.54 585.381C1818.44 580.927 1815.93 579.784 1815.07 577.056C1814.21 574.329 1812.41 572.63 1811.32 571.765C1808.33 569.352 1807.1 569.459 1803.96 566.928C1800.84 564.398 1795.39 559.317 1784.28 560.269C1779.78 560.649 1776.83 561.404 1774.67 562.226C1772.9 563.08 1770.2 564.578 1768.93 566.318C1766.93 569.053 1766.48 570.616 1766.48 570.616C1766.48 570.616 1765.55 567.742 1766.74 565.397C1763.43 565.806 1758.64 565.703 1755.55 567.784C1751.98 570.194 1752.84 570.459 1749.42 572.53C1746 574.601 1743.85 574.157 1741.74 576.988C1739.62 579.819 1739.79 580.712 1735.05 583.095C1730.33 585.496 1726.24 590.342 1725.73 594.134C1725.22 597.925 1724.04 600.165 1724.26 600.378C1723.5 601.493 1722.75 602.731 1722.19 604.003C1720.31 608.173 1721.31 611.563 1721.31 611.563C1723.27 613.521 1724.15 614.562 1724.15 614.562C1724.15 614.562 1720.83 614.372 1718.64 613.081C1718.51 613.228 1718.37 613.358 1718.24 613.522C1716.84 615.288 1719.42 618.036 1718.55 620.267C1717.68 622.498 1715.56 623.147 1716.1 629.155C1716.65 635.164 1718.82 635.679 1719.84 641.111C1720.86 646.543 1724.19 655.106 1727.93 658.444C1731.66 661.782 1731.73 662.808 1736.23 669.569C1739.11 673.908 1743.21 675.817 1745.81 676.632C1745.89 674.651 1746.17 671.913 1746.83 671.353C1747.7 670.616 1746.87 672.798 1747.6 675.603C1748.33 678.408 1754.23 682.085 1754.23 682.085C1757.71 684.082 1763.52 683.794 1765.94 685.633C1768.36 687.489 1777.21 692.961 1782.82 693.817C1788.43 694.673 1789.58 690.144 1793.44 689.306C1797.31 688.452 1801.02 689.254 1809.26 679.145C1817.49 669.034 1815.54 657.984 1812.58 648.959C1809.61 639.935 1803.18 635.738 1792.55 631.173C1787.42 628.968 1782.95 629.174 1779.71 629.976C1777.76 630.657 1774.58 632.009 1773.23 633.953C1771.21 636.845 1771.09 638.277 1771.09 638.277C1771.09 638.277 1769.77 634.79 1771.49 631.714C1771.86 631.024 1772.38 630.4 1772.94 629.831C1772.71 629.407 1772.43 628.962 1772.13 628.461C1770.65 626.157 1765.88 624.561 1765.88 624.561C1765.88 624.561 1768.39 622.591 1769.42 618.315C1769.68 617.194 1769.69 615.893 1769.57 614.546C1770.73 613.957 1772.43 613.308 1774.34 613.257L1775.12 613.234C1775.37 612.27 1775.69 611.189 1776.02 610.179C1776.89 607.508 1780.02 606.644 1780.02 606.644C1780.02 606.644 1778.98 607.524 1778.45 610.048C1778.11 611.672 1778.01 613.635 1777.96 614.844C1778.35 616.882 1780.02 620.416 1786.61 623.394C1796.54 627.866 1801.5 624.851 1805.35 625.736C1809.2 626.621 1815.57 628.65 1822.94 618.942C1830.33 609.236 1830.29 603.569 1830.29 603.569L1830.31 603.606Z" fill="#FBD008"/>
<path d="M1348.91 1007.86C1348.91 1007.86 1335.59 1011.76 1332.03 1017.51C1328.46 1023.26 1327.74 1025.93 1325.19 1027.22C1322.64 1028.52 1321.26 1030.57 1320.58 1031.78C1318.69 1035.13 1318.99 1036.33 1317.01 1039.84C1315.02 1043.33 1310.89 1049.53 1313.64 1060.33C1314.75 1064.71 1315.98 1067.51 1317.14 1069.5C1318.27 1071.11 1320.19 1073.53 1322.11 1074.5C1325.13 1076.03 1326.75 1076.21 1326.75 1076.21C1326.75 1076.21 1324.07 1077.6 1321.56 1076.8C1322.5 1080.01 1323.18 1084.75 1325.74 1087.46C1328.69 1090.59 1328.82 1089.7 1331.42 1092.73C1334.02 1095.77 1333.93 1097.96 1337.07 1099.59C1340.2 1101.21 1341.06 1100.9 1344.18 1105.19C1347.32 1109.46 1352.76 1112.7 1356.59 1112.59C1360.41 1112.47 1362.82 1113.28 1362.99 1113.02C1364.21 1113.59 1365.56 1114.13 1366.9 1114.48C1371.32 1115.65 1374.51 1114.11 1374.51 1114.11C1376.12 1111.86 1377 1110.83 1377 1110.83C1377 1110.83 1377.35 1114.13 1376.44 1116.5C1376.6 1116.61 1376.75 1116.72 1376.94 1116.83C1378.91 1117.91 1381.2 1114.92 1383.54 1115.42C1385.89 1115.91 1386.87 1117.9 1392.71 1116.38C1398.55 1114.86 1398.7 1112.64 1403.9 1110.75C1409.09 1108.86 1417 1104.18 1419.68 1099.95C1422.37 1095.72 1423.37 1095.48 1429.31 1089.94C1433.12 1086.39 1434.33 1082.04 1434.72 1079.34C1432.75 1079.59 1430 1079.76 1429.34 1079.2C1428.47 1078.46 1430.76 1078.92 1433.41 1077.75C1436.06 1076.57 1438.73 1070.15 1438.73 1070.15C1440.13 1066.39 1438.9 1060.71 1440.32 1058.02C1441.76 1055.33 1445.71 1045.7 1445.65 1040.03C1445.58 1034.36 1440.92 1033.96 1439.47 1030.29C1437.99 1026.6 1438.18 1022.82 1426.86 1016.33C1415.55 1009.86 1404.96 1013.58 1396.54 1017.98C1388.12 1022.37 1385.03 1029.4 1382.25 1040.63C1380.91 1046.05 1381.84 1050.42 1383.16 1053.49C1384.15 1055.3 1386 1058.22 1388.14 1059.24C1391.32 1060.76 1392.76 1060.64 1392.76 1060.64C1392.76 1060.64 1389.53 1062.51 1386.22 1061.33C1385.48 1061.07 1384.77 1060.65 1384.12 1060.2C1383.74 1060.49 1383.35 1060.84 1382.9 1061.22C1380.87 1063.05 1380.07 1068.02 1380.07 1068.02C1380.07 1068.02 1377.72 1065.86 1373.33 1065.55C1372.18 1065.47 1370.9 1065.67 1369.59 1066.01C1368.82 1064.97 1367.9 1063.39 1367.54 1061.51L1367.39 1060.75C1366.4 1060.66 1365.28 1060.52 1364.23 1060.36C1361.45 1059.93 1360.09 1056.99 1360.09 1056.99C1360.09 1056.99 1361.13 1057.87 1363.71 1057.98C1365.36 1058.06 1367.32 1057.83 1368.52 1057.68C1370.46 1056.96 1373.68 1054.74 1375.55 1047.76C1378.34 1037.23 1374.56 1032.83 1374.8 1028.89C1375.05 1024.94 1376.01 1018.33 1365.24 1012.64C1354.46 1006.93 1348.87 1007.88 1348.87 1007.88L1348.91 1007.86Z" fill="#FBD008"/>
<path d="M163.849 624.756C163.849 624.756 147.239 633.137 143.942 641.597C140.646 650.056 140.351 653.751 137.302 656.077C134.252 658.403 132.931 661.453 132.335 663.215C130.652 668.085 131.351 669.596 129.587 674.706C127.817 679.794 123.889 688.981 130.152 702.559C132.682 708.065 134.981 711.45 137 713.794C138.885 715.64 142.006 718.367 144.779 719.173C149.14 720.449 151.315 720.3 151.315 720.3C151.315 720.3 148.114 722.788 144.612 722.349C146.637 726.341 148.693 732.437 152.723 735.379C157.389 738.782 157.334 737.583 161.503 740.95C165.672 744.316 166.093 747.236 170.627 748.612C175.16 749.987 176.21 749.365 181.375 754.259C186.556 759.124 194.532 762.072 199.547 760.988C204.562 759.904 207.929 760.38 208.093 759.996C209.845 760.446 211.751 760.831 213.611 760.961C219.725 761.425 223.548 758.624 223.548 758.624C225.125 755.262 226.039 753.682 226.039 753.682C226.039 753.682 227.31 757.95 226.679 761.299C226.926 761.403 227.15 761.512 227.419 761.609C230.281 762.561 232.574 758.061 235.785 758.142C238.996 758.224 240.782 760.606 248.111 757.176C255.44 753.746 255.104 750.779 261.492 747.019C267.88 743.26 277.163 735.154 279.672 728.921C282.18 722.688 283.442 722.13 289.92 713.371C294.081 707.761 294.62 701.719 294.465 698.072C291.931 698.876 288.349 699.768 287.341 699.19C286.017 698.43 289.148 698.485 292.353 696.287C295.559 694.088 297.51 684.972 297.51 684.972C298.444 679.673 295.434 672.476 296.649 668.581C297.887 664.68 300.756 651.021 299.281 643.556C297.805 636.091 291.568 636.703 288.753 632.22C285.91 627.719 285.235 622.684 268.726 616.89C252.224 611.118 239.173 618.614 229.139 626.461C219.105 634.309 216.742 644.337 215.826 659.824C215.38 667.297 217.677 672.842 220.165 676.564C221.912 678.715 225.067 682.112 228.137 682.935C232.702 684.156 234.564 683.655 234.564 683.655C234.564 683.655 230.766 686.91 226.107 686.151C225.066 685.995 224.039 685.616 223.068 685.174C222.637 685.654 222.202 686.208 221.711 686.825C219.476 689.733 219.639 696.484 219.639 696.484C219.639 696.484 216.008 694.21 210.147 694.867C208.611 695.038 206.968 695.626 205.322 696.385C204.053 695.198 202.458 693.346 201.522 690.954L201.14 689.989C199.808 690.105 198.299 690.196 196.874 690.24C193.108 690.356 190.595 686.811 190.595 686.811C190.595 686.811 192.178 687.719 195.602 687.234C197.809 686.93 200.326 686.155 201.874 685.665C204.267 684.244 207.965 680.53 208.72 670.862C209.835 656.293 203.776 651.421 203.137 646.158C202.498 640.894 202.154 631.935 186.551 627.062C170.941 622.166 163.809 624.791 163.809 624.791L163.849 624.756Z" fill="#FBD008"/>
<path d="M649.607 20.2067C649.607 20.2067 642.907 -1.16798 633.504 -6.74234C624.101 -12.3167 619.769 -13.3915 617.603 -17.4702C615.438 -21.549 612.074 -23.716 610.098 -24.7701C604.642 -27.7237 602.711 -27.1895 596.986 -30.2869C591.289 -33.3871 581.145 -39.8545 563.788 -35.0772C556.75 -33.1511 552.279 -31.0831 549.098 -29.1441C546.536 -27.2668 542.685 -24.0946 541.183 -20.958C538.812 -16.0279 538.563 -13.4146 538.563 -13.4146C538.563 -13.4146 536.235 -17.7046 537.444 -21.7791C532.304 -20.1564 524.66 -18.9092 520.374 -14.6981C515.417 -9.82256 516.851 -9.65299 512.035 -5.36038C507.218 -1.06777 503.667 -1.13967 501.144 3.97623C498.621 9.09214 499.155 10.461 492.329 15.6371C485.533 20.8385 480.468 29.7354 480.772 35.9057C481.077 42.0761 479.851 45.9816 480.275 46.2521C479.396 48.2456 478.566 50.4334 478.047 52.6185C476.297 59.7906 478.875 64.8805 478.875 64.8805C482.559 67.4138 484.257 68.8085 484.257 68.8085C484.257 68.8085 478.937 69.4821 475.083 68.0752C474.911 68.3483 474.737 68.5932 474.569 68.8945C472.877 72.107 477.774 75.7138 477.047 79.5125C476.321 83.3112 473.141 84.9658 475.779 94.3447C478.417 103.724 482.007 103.905 485.221 112.231C488.434 120.557 496.244 133.174 503.157 137.376C510.069 141.578 510.485 143.186 519.62 152.599C525.469 158.642 532.541 160.467 536.903 160.998C536.445 157.83 536.088 153.4 536.972 152.316C538.134 150.892 537.455 154.6 539.438 158.839C541.421 163.079 551.868 167.183 551.868 167.183C557.98 169.332 567.12 167.167 571.509 169.374C575.9 171.609 591.564 177.696 600.721 177.407C609.879 177.118 610.374 169.588 616.252 167.123C622.156 164.628 628.27 164.813 638.39 146.338C648.481 127.865 642.136 110.893 634.78 97.4338C627.425 83.9751 615.976 79.2024 597.758 75.0775C588.967 73.0827 581.93 74.7244 577.02 76.9499C574.123 78.6046 569.469 81.6863 567.889 85.1721C565.544 90.3556 565.774 92.665 565.774 92.665C565.774 92.665 562.651 87.5157 564.467 82.1291C564.857 80.924 565.508 79.7781 566.223 78.7111C565.738 78.1054 565.165 77.48 564.527 76.7756C561.511 73.5499 553.46 72.42 553.46 72.42C553.46 72.42 556.873 68.552 557.242 61.461C557.34 59.6024 556.963 57.5352 556.384 55.4313C558.043 54.1563 560.555 52.6253 563.582 51.9817L564.803 51.7175C564.926 50.1123 565.114 48.3016 565.341 46.6008C565.941 42.1036 570.645 39.8132 570.645 39.8132C570.645 39.8132 569.256 41.5164 569.161 45.6787C569.089 48.3596 569.516 51.5027 569.795 53.4375C571.014 56.5583 574.701 61.6796 586.038 64.4725C603.127 68.6532 610.102 62.41 616.48 62.683C622.859 62.9561 633.569 64.3039 642.417 46.7235C651.293 29.1403 649.573 20.1532 649.573 20.1532L649.607 20.2067Z" fill="#FBD008"/>
<path d="M426.175 367.857C426.175 367.857 439.457 363.167 442.75 357.133C446.042 351.099 446.62 348.352 449.135 346.9C451.65 345.448 452.936 343.285 453.555 342.019C455.288 338.525 454.909 337.323 456.728 333.656C458.548 330.006 462.385 323.486 458.994 312.685C457.626 308.306 456.226 305.542 454.936 303.586C453.699 302.018 451.619 299.669 449.614 298.796C446.463 297.416 444.815 297.318 444.815 297.318C444.815 297.318 447.459 295.759 450.046 296.427C448.911 293.233 447.956 288.457 445.213 285.858C442.038 282.852 441.964 283.758 439.158 280.827C436.353 277.896 436.318 275.663 433.047 274.192C429.775 272.721 428.927 273.088 425.521 268.914C422.1 264.759 416.395 261.776 412.524 262.105C408.653 262.435 406.171 261.752 406.011 262.024C404.738 261.517 403.345 261.044 401.96 260.767C397.413 259.828 394.272 261.562 394.272 261.562C392.763 263.934 391.924 265.033 391.924 265.033C391.924 265.033 391.382 261.705 392.18 259.251C392.004 259.149 391.846 259.045 391.653 258.946C389.596 257.955 387.439 261.113 385.036 260.742C382.632 260.371 381.521 258.409 375.686 260.277C369.851 262.145 369.817 264.406 364.657 266.612C359.497 268.818 351.743 274.009 349.257 278.447C346.771 282.886 345.77 283.183 340.059 289.135C336.393 292.946 335.404 297.431 335.168 300.185C337.149 299.826 339.925 299.502 340.626 300.033C341.547 300.732 339.201 300.388 336.582 301.729C333.962 303.071 331.617 309.728 331.617 309.728C330.403 313.617 331.969 319.313 330.68 322.12C329.374 324.93 325.9 334.91 326.287 340.659C326.674 346.407 331.417 346.55 333.098 350.189C334.798 353.843 334.819 357.689 346.656 363.635C358.492 369.563 369.016 365.195 377.309 360.27C385.602 355.346 388.345 348.044 390.529 336.503C391.586 330.934 390.396 326.548 388.887 323.512C387.783 321.729 385.742 318.873 383.516 317.958C380.205 316.6 378.759 316.797 378.759 316.797C378.759 316.797 381.925 314.719 385.351 315.739C386.117 315.957 386.852 316.34 387.539 316.766C387.908 316.447 388.289 316.073 388.717 315.657C390.677 313.689 391.206 308.604 391.206 308.604C391.206 308.604 393.713 310.662 398.178 310.735C399.348 310.755 400.639 310.472 401.948 310.061C402.787 311.075 403.805 312.62 404.277 314.507L404.471 315.268C405.482 315.31 406.624 315.387 407.698 315.492C410.538 315.768 412.083 318.673 412.083 318.673C412.083 318.673 410.981 317.838 408.364 317.872C406.677 317.887 404.711 318.226 403.502 318.444C401.568 319.28 398.432 321.712 396.931 328.899C394.687 339.733 398.767 343.976 398.738 347.991C398.709 352.005 398.102 358.767 409.349 363.933C420.598 369.117 426.207 367.835 426.207 367.835L426.175 367.857Z" fill="#FBD008"/>
<path d="M1765.2 327.943C1757.96 330.751 1744.77 335.493 1736.51 339.098C1728.26 342.704 1703.22 365.42 1699.5 376.264C1695.78 387.107 1681.69 405.241 1695.64 418.274C1695.64 418.274 1684.26 434.748 1684.66 447.797C1685.07 460.845 1681.45 470.854 1689.95 478.047C1698.45 485.256 1708.47 490.981 1715.05 488.345C1715.05 488.345 1739.86 479.369 1748.04 469.399C1756.22 459.428 1766.64 448.245 1766.64 448.245C1766.64 448.245 1778.8 448.503 1781.51 442.15C1784.2 435.786 1787.55 425.431 1791.06 419.419C1794.55 413.395 1817.01 374.279 1807.03 350.588C1797.05 326.896 1772.47 325.13 1765.21 327.927L1765.2 327.943ZM1749.23 430.22L1749.99 432.017L1748.97 433.676C1747.96 435.334 1746.88 436.893 1745.75 438.39C1732.46 455.976 1712.39 462.382 1711.47 462.673L1708.57 463.581L1707.07 460.957C1704.74 456.89 1706.28 451.244 1708.21 445.355C1709.38 441.774 1716 435.261 1721.37 430.414C1726.68 425.616 1733.71 419.744 1737.03 419.107C1743.23 417.892 1747.61 426.505 1749.22 430.263L1749.23 430.22ZM1729.17 396.708C1728.67 397.296 1728.26 397.777 1727.96 398.148C1724.16 402.929 1719.48 402.947 1718.96 402.938L1716.95 402.887L1715.87 401.204C1712.91 396.62 1716.9 390.392 1721.54 383.169C1723.39 380.272 1725.3 377.299 1726.53 374.749C1730.78 365.87 1748.22 355.547 1750.19 354.399L1754.86 351.686L1755.81 357.013C1756.3 359.708 1754.7 362.434 1745.2 375.199C1742.86 378.354 1740.64 381.33 1739.22 383.47C1737.52 386.003 1735.95 388.177 1734.55 390.025C1732.29 393.02 1730.47 395.173 1729.18 396.693L1729.17 396.708ZM1786.1 364.8C1788.95 373.433 1775.66 405.698 1773.81 408.498C1773.72 408.621 1773.62 408.743 1773.53 408.865C1772.48 410.255 1771.06 411.15 1769.41 411.461C1766.2 412.084 1763.33 410.251 1762.77 409.877L1762.16 409.469L1761.76 408.854C1761.03 407.751 1754.54 397.857 1753.39 392.45C1752.36 387.709 1756.79 381.39 1766.49 369.829C1767.87 368.187 1769.07 366.763 1769.61 366.018C1773.33 360.864 1776.93 358.519 1780.37 359.055C1782.22 359.346 1784.73 360.571 1786.11 364.784L1786.1 364.8Z" fill="#3E000A"/>
<path d="M288.185 554.649C295.998 553.564 310.146 551.96 319.143 550.324C328.139 548.688 358.194 532.088 364.404 522.241C370.613 512.394 388.766 497.762 378.025 481.624C378.025 481.624 393.126 468.003 395.773 455.013C398.419 442.022 404.333 432.977 397.607 423.881C390.896 414.773 382.327 406.775 375.207 407.842C375.207 407.842 348.595 410.919 338.182 418.862C327.769 426.805 314.861 435.423 314.861 435.423C314.861 435.423 302.905 432.328 298.745 437.974C294.597 443.635 288.867 453.085 283.995 458.208C279.136 463.345 247.806 496.756 252.139 522.501C256.472 548.246 280.346 555.731 288.17 554.662L288.185 554.649ZM327.859 457.303L327.529 455.351L328.917 453.948C330.306 452.545 331.738 451.257 333.206 450.042C350.441 435.765 371.779 434.123 372.753 434.05L375.828 433.829L376.701 436.773C378.058 441.338 375.209 446.556 371.932 451.926C369.942 455.193 361.872 460.081 355.435 463.618C349.069 467.12 340.75 471.281 337.322 471.136C330.906 470.888 328.587 461.352 327.876 457.263L327.859 457.303ZM339.858 495.107C340.482 494.641 341.001 494.262 341.388 493.967C346.264 490.13 350.89 491.204 351.403 491.335L353.372 491.853L354.051 493.77C355.9 498.99 350.508 504.215 344.237 510.269C341.73 512.699 339.149 515.192 337.338 517.425C331.058 525.206 311.417 531.335 309.198 532.009L303.951 533.599L304.254 528.113C304.402 525.336 306.622 523.016 318.991 512.619C322.036 510.047 324.928 507.625 326.836 505.843C329.105 503.736 331.164 501.955 332.976 500.454C335.911 498.023 338.211 496.32 339.843 495.12L339.858 495.107ZM276.139 513.344C275.337 504.146 296.01 475.365 298.493 473.029C298.613 472.93 298.733 472.831 298.853 472.731C300.215 471.603 301.828 471.05 303.535 471.129C306.853 471.264 309.261 473.745 309.726 474.245L310.228 474.79L310.48 475.491C310.944 476.751 315.047 488.045 314.925 493.658C314.839 498.584 308.979 503.793 296.697 512.955C294.945 514.254 293.431 515.382 292.724 515.992C287.84 520.215 283.736 521.692 280.461 520.36C278.704 519.64 276.508 517.843 276.124 513.356L276.139 513.344Z" fill="#3E000A"/>
<path d="M2004 522.68C2004.06 523.109 2004.12 523.537 2004.17 523.961C2004.59 528.737 2003.8 535.587 2003.36 536.036C2002.9 536.479 2001.8 527.774 1998.71 521.167C1997.84 519.309 1996.88 517.818 1995.92 516.628C1994.98 515.764 1993.45 514.359 1991.64 512.797C1991.39 512.646 1991.23 512.579 1991.23 512.579L1991.43 512.64C1987.92 509.585 1983.47 506.021 1980.45 504.665C1974.77 502.123 1974.02 507.882 1972.09 510.463C1968.23 515.624 1967.7 520.902 1970.67 529.642C1975.6 544.156 1975.52 545.339 1976.55 552.301C1977.59 559.262 1975.92 564.7 1975.92 564.7C1975.92 564.7 1973.21 547.997 1966.15 538.242C1963.87 535.11 1961.89 531.716 1960.38 528.27C1950.85 536.886 1937.46 553.081 1937.46 553.081C1937.46 553.081 1923.57 572.217 1913.68 601.089C1911.38 608.552 1910.09 615.283 1910.81 619.903C1913.65 638.032 1914.23 647.574 1912.37 655.335C1911.12 660.583 1910.22 662.828 1909.76 663.717C1909.5 662.352 1909.32 660.981 1909.3 659.585C1908.35 652.064 1905.62 634.47 1900.23 625.468C1899.24 623.806 1898.52 621.998 1898 620.145C1885.12 631.428 1874.79 646.412 1870.83 651.382C1868.08 654.826 1865.72 658.177 1863.58 661.546C1858.7 670.533 1854.36 681.202 1852.77 692.642C1850.5 708.921 1854.43 718.799 1853.3 728.694C1852.26 737.815 1850.13 747.235 1849.29 746.348C1849.21 746.269 1849.14 746.141 1849.07 745.906C1848.24 742.834 1849.69 738.7 1846.73 727.473C1844.98 720.75 1842.86 712.15 1841.62 701.799C1841.43 702.398 1841.27 702.97 1841.1 703.575C1841.1 703.575 1823.9 719.877 1812.25 735.159C1809.09 739.309 1795.85 755.839 1789.9 762.479C1783.76 769.309 1778.12 772.168 1781.52 780.954C1784.13 787.661 1794.04 792.848 1799.98 795.418C1799.81 793.923 1798.79 791.31 1798.56 788.603C1797.47 776.182 1799.41 773.322 1800.22 772.206C1801.36 770.622 1799.96 778.047 1802.04 784.249C1804.17 790.663 1806.73 796.748 1811.76 802.825C1812.43 803.231 1813.05 803.531 1813.54 803.667C1819.74 805.379 1827.28 797.668 1836.34 783.39C1844.76 770.106 1848.1 757.345 1849.61 753.049C1866.52 742.529 1881.54 721.096 1889.49 710.065C1904.38 689.413 1908.41 678.218 1911.08 668.595C1914.59 664.712 1941.8 634.5 1959.64 607.672C1968.77 593.951 1976.89 570.358 1976.89 570.358C1976.89 570.358 1985.68 565.068 1993.54 558.227C1997.48 554.798 2001.68 548.873 2004.66 542.278C2004.66 542.278 2012.75 537.822 2013.22 536.777C2014.97 532.804 2009.12 526.898 2003.94 522.66L2004 522.68Z" fill="#3E000A"/>
<path d="M1779.16 158.964L1779.49 159.767C1779.56 159.932 1779.63 160.098 1779.7 160.263C1779.84 155.671 1780.51 151.537 1781.66 148.668C1785.86 138.143 1786.37 128.484 1786.37 128.484C1786.37 128.484 1790.77 130.78 1788.94 152.195C1788.19 160.922 1787.23 169.087 1788.54 175.362C1789.06 177.853 1789.96 180.033 1790.83 181.769C1791.59 183.04 1792.36 184.303 1793.14 185.557C1793.35 185.841 1793.48 186.007 1793.48 186.007L1793.44 186.064C1804.08 203.169 1816.49 218.538 1823.86 223.464C1834.98 230.894 1854.35 252.951 1856.71 260.56C1859.07 268.182 1867.05 282.533 1880.86 300.858C1894.68 319.184 1927.1 343.15 1932.84 348.783C1933.39 349.324 1934.09 350.162 1934.9 351.221C1933.63 341.241 1935.6 333.086 1935.75 327.436C1936.1 314.266 1933.9 311.197 1933.9 311.197C1933.9 311.197 1938.76 317.832 1940.25 325.025C1942.79 337.16 1938.54 346.84 1945.73 362.899C1948.13 368.272 1948.17 370.925 1950.3 375.004C1955.9 384.171 1960.87 392.501 1962.02 393.904C1964.56 397.004 1966.92 392.156 1966.92 392.156C1966.92 392.156 1989.4 374.836 1993.27 369.959C1997.13 365.083 1989.81 361.281 1989.81 361.281C1989.81 361.281 1957.64 330.565 1945.47 317.989C1931.18 303.227 1925 282.812 1911.18 265.031C1897.37 247.243 1876.17 223.023 1861.86 210.667C1861.84 210.63 1861.8 210.601 1861.77 210.571C1862.5 214.834 1862.67 219.26 1861.88 223.481C1858.61 240.434 1856.55 249.395 1856.55 249.395C1856.55 249.395 1853.13 247.755 1854.24 236.028C1855.16 226.3 1857.29 210.282 1845.2 182.471C1843.58 178.739 1841.94 175.24 1840.31 171.934C1837.39 166.788 1834.47 162.179 1831.8 158.941C1820.99 145.812 1787.22 121.567 1787.22 121.567C1787.22 121.567 1784.71 111.688 1776.77 113.365C1772.88 114.191 1752.82 133.753 1752.64 138.422C1752.34 146.179 1779.51 159.771 1779.51 159.771L1779.18 158.969L1779.16 158.964ZM1778.15 156.61C1778.15 156.61 1778.13 156.585 1778.15 156.61V156.61ZM1779.11 158.857L1778.9 158.373L1779.11 158.857ZM1778.62 157.711L1778.44 157.285L1778.62 157.711ZM1778.32 156.991L1778.27 156.851L1778.32 156.991Z" fill="#3E000A"/>
<path d="M187.124 509.303C180.561 507.532 173.99 508.78 173.99 508.78C173.87 508.643 173.75 508.505 173.63 508.368C174.95 512.842 175.624 517.04 175.424 520.172C174.703 531.661 177.278 541.139 177.278 541.139C177.278 541.139 172.303 540.32 167.277 519.081C165.231 510.425 163.574 502.242 160.315 496.606C159.026 494.367 157.469 492.549 156.072 491.152C154.94 490.166 153.798 489.192 152.647 488.229C152.349 488.024 152.177 487.902 152.177 487.902L152.192 487.837C136.502 474.711 119.66 463.82 110.987 461.406C97.9055 457.765 72.2187 442.633 67.5319 436.04C62.8336 429.437 50.587 418.124 31.4477 404.827C12.3084 391.531 -26.5717 378.696 -33.8934 375.082C-34.5995 374.737 -35.5325 374.147 -36.6533 373.383C-32.2589 382.607 -31.5727 391.099 -29.9269 396.597C-26.0912 409.415 -22.9979 411.677 -22.9979 411.677C-22.9979 411.677 -29.7829 406.816 -33.508 400.352C-39.8072 389.452 -40.7793 380.337 -50.8025 365.552C-54.6514 359.878 -54.8357 358.777 -60.8834 352.756C-66.9311 346.734 -74.8002 341.799 -76.359 340.813C-79.7859 338.626 -80.5248 344.05 -80.5248 344.05C-80.5248 344.05 -85.0559 350.575 -85.0647 362.9C-85.0726 369.776 -82.8119 376.844 -82.8119 376.844C-82.8119 376.844 -87.1596 372.584 -89.3693 364.744C-89.8964 362.877 -90.1807 360.88 -90.313 358.91C-90.4514 359.126 -90.5992 359.354 -90.7376 359.57C-94.462 365.418 -97.3245 367.183 -98.9136 373.812C-100.38 379.958 -92.8052 381.085 -92.8052 381.085C-92.8052 381.085 -87.2138 382.098 -81.0283 386.72C-60.0626 402.405 -46.6319 403.346 -36.2938 408.772C-17.8214 418.478 -5.38297 436.211 13.5865 448.981C32.5466 461.762 60.6861 478.4 78.4046 485.781C78.4394 485.81 78.4838 485.827 78.5281 485.844C76.4678 481.965 74.8965 477.75 74.327 473.425C72.1039 456.034 71.2417 446.738 71.2417 446.738C71.2417 446.738 75.0651 447.234 77.7094 458.901C79.91 468.576 82.9348 484.704 103.424 507.696C106.173 510.781 108.856 513.639 111.478 516.311C115.932 520.348 120.206 523.869 123.812 526.145C138.4 535.383 178.671 548.058 178.671 548.058C178.671 548.058 184.222 556.794 191.358 552.655C194.844 550.625 207.784 525.455 206.684 520.83C205.608 516.342 192.885 510.843 187.122 509.282L187.124 509.303Z" fill="#3E000A"/>
<path d="M314.551 -25.2856C314.16 -31.7621 294.315 -33.8217 293.9 -33.7501C293.948 -33.7247 281.241 -37.5079 275.755 -37.2012C270.269 -36.8945 272.003 -32.0604 271.53 -29.2531C270.583 -23.6385 272.192 -18.249 278.062 -12.5914C287.819 -3.18957 288.34 -3.25668 291.98 1.79423C295.604 6.84662 296.505 11.794 296.505 11.794C296.505 11.794 287.603 -0.226925 278.095 -5.02348C275.031 -6.57253 272.117 -8.43814 269.528 -10.5172C265.525 0.108305 261.581 18.269 261.581 18.269C261.581 18.269 258.415 38.931 262.346 65.6107C263.553 72.4128 265.278 78.213 267.706 81.5449C277.288 94.6292 281.6 101.89 283.295 108.749C284.99 115.608 284.614 116.973 284.614 116.973C284.614 116.973 273.558 96.6759 263.84 89.623C262.458 88.6148 261.251 87.393 260.184 86.0668C253.619 99.7084 250.415 115.472 248.921 120.885C247.879 124.639 247.118 128.184 246.546 131.665C245.697 140.663 245.869 150.842 248.542 160.695C252.339 174.719 258.959 181.387 261.475 189.823C263.789 197.601 265.321 205.999 264.329 205.571C264.235 205.535 264.136 205.454 263.999 205.287C262.256 203.078 262.006 199.212 255.71 191.108C251.954 186.25 247.244 179.994 242.648 172.007C242.703 172.559 242.77 173.081 242.84 173.632C242.84 173.632 234.511 192.849 230.337 209.313C229.201 213.785 224.174 231.813 221.634 239.276C219.01 246.958 215.857 250.848 221.224 257.204C226.607 263.559 249.022 266.9 256.369 265.91C262.006 265.151 264.143 262.253 266.558 247.502C268.805 233.78 267.161 214.91 266.896 210.895C277.001 196.477 281.779 173.844 284.421 162.118C289.521 139.543 287.761 132.027 286.539 123.115C286.539 123.115 297.724 70.4624 301.108 52.1314C303.747 37.8113 299.545 15.819 299.545 15.819C299.545 15.819 302.608 3.92993 306.017 -4.64542C309.114 -12.4204 314.624 -23.0457 314.474 -25.308L314.551 -25.2856Z" fill="#3E000A"/>
</g>
<defs>
<clipPath id="clip0_1059_491">
<rect width="1920" height="1080" fill="white"/>
</clipPath>
</defs>
</svg>
